  0
SECTION
  2
HEADER
  9
$ACADVER
  1
AC1009
  9
$FILLMODE
 70
1
  9
$EXTMIN
 10
66.8804
 20
77.2837
 30
0.0000
  9
$EXTMAX
 10
95.8384
 20
264.4355
 30
0.0000
  0
ENDSEC
  0
SECTION
  2
TABLES
  0
TABLE
  2
LTYPE
 70
1
  0
LTYPE
  2
CONTINUOUS
 70
64
  3
Solid line
 72
65
 73
0
 40
0
  0
ENDTAB
  0
TABLE
  2
LAYER
 70
255
  0
LAYER
  2
23
 70
64
 62
53
  6
CONTINUOUS
  0
LAYER
  2
51
 70
64
 62
253
  6
CONTINUOUS
  0
ENDTAB
  0
ENDSEC
  0
SECTION
  2
BLOCKS
  0
BLOCK
  8
0
  2
RECT
 70
64
 10
0.0000
 20
0.0000
 30
0.0000
  3
RECT
  0
SOLID
  8
0
 10
-0.5000
 20
-0.5000
 30
0.0000
 11
0.5000
 21
-0.5000
 31
0.0000
 12
-0.5000
 22
0.5000
 32
0.0000
 13
0.5000
 23
0.5000
 33
0.0000
  0
ENDBLK
  8
0
  0
BLOCK
  8
0
  2
PIE
 70
64
 10
0.0000
 20
0.0000
 30
0.0000
  3
PIE
  0
POLYLINE
  8
0
 66
1
 10
0.0000
 20
0.0000
 30
0.0000
 40
0.5000
 41
0.5000
 70
0
  0
VERTEX
  8
0
 10
0.0000
 20
-0.2500
 30
0.0000
 42
1.0000
  0
VERTEX
  8
0
 10
0.0000
 20
0.2500
 30
0.0000
 42
1.0000
  0
VERTEX
  8
0
 10
0.0000
 20
-0.2500
 30
0.0000
  0
SEQEND
  8
0
  0
ENDBLK
  8
0
  0
BLOCK
  8
0
  2
OCTAGONP
 70
64
 10
0.0000
 20
0.0000
 30
0.0000
  3
OCTAGONP
  0
POLYLINE
  8
0
 66
1
 10
0.0000
 20
0.0000
 30
0.0000
 40
0.5000
 41
0.5000
 70
0
  0
VERTEX
  8
0
 10
-0.2500
 20
-0.1036
 30
0.0000
  0
VERTEX
  8
0
 10
-0.2500
 20
0.1036
 30
0.0000
  0
VERTEX
  8
0
 10
-0.1036
 20
0.2500
 30
0.0000
  0
VERTEX
  8
0
 10
0.1036
 20
0.2500
 30
0.0000
  0
VERTEX
  8
0
 10
0.2500
 20
0.1036
 30
0.0000
  0
VERTEX
  8
0
 10
0.2500
 20
-0.1036
 30
0.0000
  0
VERTEX
  8
0
 10
0.1036
 20
-0.2500
 30
0.0000
  0
VERTEX
  8
0
 10
-0.1036
 20
-0.2500
 30
0.0000
  0
VERTEX
  8
0
 10
-0.2500
 20
-0.1036
 30
0.0000
  0
VERTEX
  8
0
 10
-0.2500
 20
0.1036
 30
0.0000
  0
SEQEND
  8
0
  0
ENDBLK
  8
0
  0
BLOCK
  8
0
  2
SQUAREP
 70
64
 10
0.0000
 20
0.0000
 30
0.0000
  3
SQUAREP
  0
SOLID
  8
0
 10
-0.5000
 20
-0.5000
 30
0.0000
 11
0.5000
 21
-0.5000
 31
0.0000
 12
-0.5000
 22
0.5000
 32
0.0000
 13
0.5000
 23
0.5000
 33
0.0000
  0
ENDBLK
  8
0
  0
BLOCK
  8
0
  2
ROUNDP
 70
64
 10
0.0000
 20
0.0000
 30
0.0000
  3
ROUNDP
  0
POLYLINE
  8
0
 66
1
 10
0.0000
 20
0.0000
 30
0.0000
 40
0.5000
 41
0.5000
 70
0
  0
VERTEX
  8
0
 10
0.0000
 20
-0.2500
 30
0.0000
 42
1.0000
  0
VERTEX
  8
0
 10
0.0000
 20
0.2500
 30
0.0000
 42
1.0000
  0
VERTEX
  8
0
 10
0.0000
 20
-0.2500
 30
0.0000
  0
SEQEND
  8
0
  0
ENDBLK
  8
0
  0
BLOCK
  8
0
  2
ANNULUSP
 70
64
 10
0.0000
 20
0.0000
 30
0.0000
  3
ANNULUSP
  0
POLYLINE
  8
0
 66
1
 10
0.0000
 20
0.0000
 30
0.0000
 40
0.5000
 41
0.5000
 70
0
  0
VERTEX
  8
0
 10
0.0000
 20
-0.2500
 30
0.0000
 42
1.0000
  0
VERTEX
  8
0
 10
0.0000
 20
0.2500
 30
0.0000
 42
1.0000
  0
VERTEX
  8
0
 10
0.0000
 20
-0.2500
 30
0.0000
  0
SEQEND
  8
0
  0
ENDBLK
  8
0
  0
BLOCK
  8
0
  2
THERMALP
 70
64
 10
0.0000
 20
0.0000
 30
0.0000
  3
THERMALP
  0
POLYLINE
  8
0
 66
1
 10
0.0000
 20
0.0000
 30
0.0000
 40
0.1000
 41
0.1000
 70
0
  0
VERTEX
  8
0
 10
-0.2379
 20
0.4500
 30
0.0000
  0
VERTEX
  8
0
 10
0.2379
 20
0.4500
 30
0.0000
  0
SEQEND
  8
0
  0
POLYLINE
  8
0
 66
1
 10
0.0000
 20
0.0000
 30
0.0000
 40
0.0500
 41
0.0500
 70
0
  0
VERTEX
  8
0
 10
0.2379
 20
0.4250
 30
0.0000
 42
1.0000
  0
VERTEX
  8
0
 10
0.2379
 20
0.4750
 30
0.0000
  0
SEQEND
  8
0
  0
POLYLINE
  8
0
 66
1
 10
0.0000
 20
0.0000
 30
0.0000
 40
0.0500
 41
0.0500
 70
0
  0
VERTEX
  8
0
 10
-0.2379
 20
0.4750
 30
0.0000
 42
1.0000
  0
VERTEX
  8
0
 10
-0.2379
 20
0.4250
 30
0.0000
  0
SEQEND
  8
0
  0
POLYLINE
  8
0
 66
1
 10
0.0000
 20
0.0000
 30
0.0000
 40
0.1000
 41
0.1000
 70
0
  0
VERTEX
  8
0
 10
0.4500
 20
0.2379
 30
0.0000
  0
VERTEX
  8
0
 10
0.4500
 20
-0.2379
 30
0.0000
  0
SEQEND
  8
0
  0
POLYLINE
  8
0
 66
1
 10
0.0000
 20
0.0000
 30
0.0000
 40
0.0500
 41
0.0500
 70
0
  0
VERTEX
  8
0
 10
0.4250
 20
-0.2379
 30
0.0000
 42
1.0000
  0
VERTEX
  8
0
 10
0.4750
 20
-0.2379
 30
0.0000
  0
SEQEND
  8
0
  0
POLYLINE
  8
0
 66
1
 10
0.0000
 20
0.0000
 30
0.0000
 40
0.0500
 41
0.0500
 70
0
  0
VERTEX
  8
0
 10
0.4750
 20
0.2379
 30
0.0000
 42
1.0000
  0
VERTEX
  8
0
 10
0.4250
 20
0.2379
 30
0.0000
  0
SEQEND
  8
0
  0
POLYLINE
  8
0
 66
1
 10
0.0000
 20
0.0000
 30
0.0000
 40
0.1000
 41
0.1000
 70
0
  0
VERTEX
  8
0
 10
0.2379
 20
-0.4500
 30
0.0000
  0
VERTEX
  8
0
 10
-0.2379
 20
-0.4500
 30
0.0000
  0
SEQEND
  8
0
  0
POLYLINE
  8
0
 66
1
 10
0.0000
 20
0.0000
 30
0.0000
 40
0.0500
 41
0.0500
 70
0
  0
VERTEX
  8
0
 10
-0.2379
 20
-0.4250
 30
0.0000
 42
1.0000
  0
VERTEX
  8
0
 10
-0.2379
 20
-0.4750
 30
0.0000
  0
SEQEND
  8
0
  0
POLYLINE
  8
0
 66
1
 10
0.0000
 20
0.0000
 30
0.0000
 40
0.0500
 41
0.0500
 70
0
  0
VERTEX
  8
0
 10
0.2379
 20
-0.4750
 30
0.0000
 42
1.0000
  0
VERTEX
  8
0
 10
0.2379
 20
-0.4250
 30
0.0000
  0
SEQEND
  8
0
  0
POLYLINE
  8
0
 66
1
 10
0.0000
 20
0.0000
 30
0.0000
 40
0.1000
 41
0.1000
 70
0
  0
VERTEX
  8
0
 10
-0.4500
 20
-0.2379
 30
0.0000
  0
VERTEX
  8
0
 10
-0.4500
 20
0.2379
 30
0.0000
  0
SEQEND
  8
0
  0
POLYLINE
  8
0
 66
1
 10
0.0000
 20
0.0000
 30
0.0000
 40
0.0500
 41
0.0500
 70
0
  0
VERTEX
  8
0
 10
-0.4250
 20
0.2379
 30
0.0000
 42
1.0000
  0
VERTEX
  8
0
 10
-0.4750
 20
0.2379
 30
0.0000
  0
SEQEND
  8
0
  0
POLYLINE
  8
0
 66
1
 10
0.0000
 20
0.0000
 30
0.0000
 40
0.0500
 41
0.0500
 70
0
  0
VERTEX
  8
0
 10
-0.4750
 20
-0.2379
 30
0.0000
 42
1.0000
  0
VERTEX
  8
0
 10
-0.4250
 20
-0.2379
 30
0.0000
  0
SEQEND
  8
0
  0
ENDBLK
  8
0
  0
BLOCK
  8
0
  2
OCTAGONV
 70
64
 10
0.0000
 20
0.0000
 30
0.0000
  3
OCTAGONV
  0
POLYLINE
  8
0
 66
1
 10
0.0000
 20
0.0000
 30
0.0000
 40
0.5000
 41
0.5000
 70
0
  0
VERTEX
  8
0
 10
-0.2500
 20
-0.1036
 30
0.0000
  0
VERTEX
  8
0
 10
-0.2500
 20
0.1036
 30
0.0000
  0
VERTEX
  8
0
 10
-0.1036
 20
0.2500
 30
0.0000
  0
VERTEX
  8
0
 10
0.1036
 20
0.2500
 30
0.0000
  0
VERTEX
  8
0
 10
0.2500
 20
0.1036
 30
0.0000
  0
VERTEX
  8
0
 10
0.2500
 20
-0.1036
 30
0.0000
  0
VERTEX
  8
0
 10
0.1036
 20
-0.2500
 30
0.0000
  0
VERTEX
  8
0
 10
-0.1036
 20
-0.2500
 30
0.0000
  0
VERTEX
  8
0
 10
-0.2500
 20
-0.1036
 30
0.0000
  0
VERTEX
  8
0
 10
-0.2500
 20
0.1036
 30
0.0000
  0
SEQEND
  8
0
  0
ENDBLK
  8
0
  0
BLOCK
  8
0
  2
SQUAREV
 70
64
 10
0.0000
 20
0.0000
 30
0.0000
  3
SQUAREV
  0
SOLID
  8
0
 10
-0.5000
 20
-0.5000
 30
0.0000
 11
0.5000
 21
-0.5000
 31
0.0000
 12
-0.5000
 22
0.5000
 32
0.0000
 13
0.5000
 23
0.5000
 33
0.0000
  0
ENDBLK
  8
0
  0
BLOCK
  8
0
  2
ROUNDV
 70
64
 10
0.0000
 20
0.0000
 30
0.0000
  3
ROUNDV
  0
POLYLINE
  8
0
 66
1
 10
0.0000
 20
0.0000
 30
0.0000
 40
0.5000
 41
0.5000
 70
0
  0
VERTEX
  8
0
 10
0.0000
 20
-0.2500
 30
0.0000
 42
1.0000
  0
VERTEX
  8
0
 10
0.0000
 20
0.2500
 30
0.0000
 42
1.0000
  0
VERTEX
  8
0
 10
0.0000
 20
-0.2500
 30
0.0000
  0
SEQEND
  8
0
  0
ENDBLK
  8
0
  0
BLOCK
  8
0
  2
ANNULUSV
 70
64
 10
0.0000
 20
0.0000
 30
0.0000
  3
ANNULUSV
  0
POLYLINE
  8
0
 66
1
 10
0.0000
 20
0.0000
 30
0.0000
 40
0.5000
 41
0.5000
 70
0
  0
VERTEX
  8
0
 10
0.0000
 20
-0.2500
 30
0.0000
 42
1.0000
  0
VERTEX
  8
0
 10
0.0000
 20
0.2500
 30
0.0000
 42
1.0000
  0
VERTEX
  8
0
 10
0.0000
 20
-0.2500
 30
0.0000
  0
SEQEND
  8
0
  0
ENDBLK
  8
0
  0
BLOCK
  8
0
  2
THERMALV
 70
64
 10
0.0000
 20
0.0000
 30
0.0000
  3
THERMALV
  0
POLYLINE
  8
0
 66
1
 10
0.0000
 20
0.0000
 30
0.0000
 40
0.1000
 41
0.1000
 70
0
  0
VERTEX
  8
0
 10
-0.2379
 20
0.4500
 30
0.0000
  0
VERTEX
  8
0
 10
0.2379
 20
0.4500
 30
0.0000
  0
SEQEND
  8
0
  0
POLYLINE
  8
0
 66
1
 10
0.0000
 20
0.0000
 30
0.0000
 40
0.0500
 41
0.0500
 70
0
  0
VERTEX
  8
0
 10
0.2379
 20
0.4250
 30
0.0000
 42
1.0000
  0
VERTEX
  8
0
 10
0.2379
 20
0.4750
 30
0.0000
  0
SEQEND
  8
0
  0
POLYLINE
  8
0
 66
1
 10
0.0000
 20
0.0000
 30
0.0000
 40
0.0500
 41
0.0500
 70
0
  0
VERTEX
  8
0
 10
-0.2379
 20
0.4750
 30
0.0000
 42
1.0000
  0
VERTEX
  8
0
 10
-0.2379
 20
0.4250
 30
0.0000
  0
SEQEND
  8
0
  0
POLYLINE
  8
0
 66
1
 10
0.0000
 20
0.0000
 30
0.0000
 40
0.1000
 41
0.1000
 70
0
  0
VERTEX
  8
0
 10
0.4500
 20
0.2379
 30
0.0000
  0
VERTEX
  8
0
 10
0.4500
 20
-0.2379
 30
0.0000
  0
SEQEND
  8
0
  0
POLYLINE
  8
0
 66
1
 10
0.0000
 20
0.0000
 30
0.0000
 40
0.0500
 41
0.0500
 70
0
  0
VERTEX
  8
0
 10
0.4250
 20
-0.2379
 30
0.0000
 42
1.0000
  0
VERTEX
  8
0
 10
0.4750
 20
-0.2379
 30
0.0000
  0
SEQEND
  8
0
  0
POLYLINE
  8
0
 66
1
 10
0.0000
 20
0.0000
 30
0.0000
 40
0.0500
 41
0.0500
 70
0
  0
VERTEX
  8
0
 10
0.4750
 20
0.2379
 30
0.0000
 42
1.0000
  0
VERTEX
  8
0
 10
0.4250
 20
0.2379
 30
0.0000
  0
SEQEND
  8
0
  0
POLYLINE
  8
0
 66
1
 10
0.0000
 20
0.0000
 30
0.0000
 40
0.1000
 41
0.1000
 70
0
  0
VERTEX
  8
0
 10
0.2379
 20
-0.4500
 30
0.0000
  0
VERTEX
  8
0
 10
-0.2379
 20
-0.4500
 30
0.0000
  0
SEQEND
  8
0
  0
POLYLINE
  8
0
 66
1
 10
0.0000
 20
0.0000
 30
0.0000
 40
0.0500
 41
0.0500
 70
0
  0
VERTEX
  8
0
 10
-0.2379
 20
-0.4250
 30
0.0000
 42
1.0000
  0
VERTEX
  8
0
 10
-0.2379
 20
-0.4750
 30
0.0000
  0
SEQEND
  8
0
  0
POLYLINE
  8
0
 66
1
 10
0.0000
 20
0.0000
 30
0.0000
 40
0.0500
 41
0.0500
 70
0
  0
VERTEX
  8
0
 10
0.2379
 20
-0.4750
 30
0.0000
 42
1.0000
  0
VERTEX
  8
0
 10
0.2379
 20
-0.4250
 30
0.0000
  0
SEQEND
  8
0
  0
POLYLINE
  8
0
 66
1
 10
0.0000
 20
0.0000
 30
0.0000
 40
0.1000
 41
0.1000
 70
0
  0
VERTEX
  8
0
 10
-0.4500
 20
-0.2379
 30
0.0000
  0
VERTEX
  8
0
 10
-0.4500
 20
0.2379
 30
0.0000
  0
SEQEND
  8
0
  0
POLYLINE
  8
0
 66
1
 10
0.0000
 20
0.0000
 30
0.0000
 40
0.0500
 41
0.0500
 70
0
  0
VERTEX
  8
0
 10
-0.4250
 20
0.2379
 30
0.0000
 42
1.0000
  0
VERTEX
  8
0
 10
-0.4750
 20
0.2379
 30
0.0000
  0
SEQEND
  8
0
  0
POLYLINE
  8
0
 66
1
 10
0.0000
 20
0.0000
 30
0.0000
 40
0.0500
 41
0.0500
 70
0
  0
VERTEX
  8
0
 10
-0.4750
 20
-0.2379
 30
0.0000
 42
1.0000
  0
VERTEX
  8
0
 10
-0.4250
 20
-0.2379
 30
0.0000
  0
SEQEND
  8
0
  0
ENDBLK
  8
0
  0
BLOCK
  8
0
  2
LONGP100
 70
64
 10
0.0000
 20
0.0000
 30
0.0000
  3
LONGP100
  0
POLYLINE
  8
0
 66
1
 10
0.0000
 20
0.0000
 30
0.0000
 40
1.0000
 41
1.0000
 70
0
  0
VERTEX
  8
0
 10
-0.5000
 20
0.0000
 30
0.0000
  0
VERTEX
  8
0
 10
0.5000
 20
0.0000
 30
0.0000
  0
SEQEND
  8
0
  0
POLYLINE
  8
0
 66
1
 10
0.0000
 20
0.0000
 30
0.0000
 40
0.5000
 41
0.5000
 70
0
  0
VERTEX
  8
0
 10
0.5000
 20
-0.2500
 30
0.0000
 42
1.0000
  0
VERTEX
  8
0
 10
0.5000
 20
0.2500
 30
0.0000
  0
SEQEND
  8
0
  0
POLYLINE
  8
0
 66
1
 10
0.0000
 20
0.0000
 30
0.0000
 40
0.5000
 41
0.5000
 70
0
  0
VERTEX
  8
0
 10
-0.5000
 20
0.2500
 30
0.0000
 42
1.0000
  0
VERTEX
  8
0
 10
-0.5000
 20
-0.2500
 30
0.0000
  0
SEQEND
  8
0
  0
ENDBLK
  8
0
  0
ENDSEC
  0
SECTION
  2
ENTITIES
  0
POINT
  8
23
 10
75.1916
 20
241.3000
 30
0.0000
  0
POLYLINE
  8
51
 66
1
 10
0.0000
 20
0.0000
 30
0.0000
 40
0.1524
 41
0.1524
 70
0
  0
VERTEX
  8
51
 10
75.1916
 20
240.0300
 30
0.0000
  0
VERTEX
  8
51
 10
75.1916
 20
240.9698
 30
0.0000
  0
SEQEND
  8
0
  0
POLYLINE
  8
51
 66
1
 10
0.0000
 20
0.0000
 30
0.0000
 40
0.0762
 41
0.0762
 70
0
  0
VERTEX
  8
51
 10
75.2297
 20
240.9698
 30
0.0000
 42
1.0000
  0
VERTEX
  8
51
 10
75.1535
 20
240.9698
 30
0.0000
  0
SEQEND
  8
0
  0
POLYLINE
  8
51
 66
1
 10
0.0000
 20
0.0000
 30
0.0000
 40
0.0762
 41
0.0762
 70
0
  0
VERTEX
  8
51
 10
75.1535
 20
240.0300
 30
0.0000
 42
1.0000
  0
VERTEX
  8
51
 10
75.2297
 20
240.0300
 30
0.0000
  0
SEQEND
  8
0
  0
POLYLINE
  8
51
 66
1
 10
0.0000
 20
0.0000
 30
0.0000
 40
0.1524
 41
0.1524
 70
0
  0
VERTEX
  8
51
 10
75.1916
 20
242.5700
 30
0.0000
  0
VERTEX
  8
51
 10
75.1916
 20
241.6048
 30
0.0000
  0
SEQEND
  8
0
  0
POLYLINE
  8
51
 66
1
 10
0.0000
 20
0.0000
 30
0.0000
 40
0.0762
 41
0.0762
 70
0
  0
VERTEX
  8
51
 10
75.1535
 20
241.6048
 30
0.0000
 42
1.0000
  0
VERTEX
  8
51
 10
75.2297
 20
241.6048
 30
0.0000
  0
SEQEND
  8
0
  0
POLYLINE
  8
51
 66
1
 10
0.0000
 20
0.0000
 30
0.0000
 40
0.0762
 41
0.0762
 70
0
  0
VERTEX
  8
51
 10
75.2297
 20
242.5700
 30
0.0000
 42
1.0000
  0
VERTEX
  8
51
 10
75.1535
 20
242.5700
 30
0.0000
  0
SEQEND
  8
0
  0
POINT
  8
23
 10
75.6996
 20
231.1400
 30
0.0000
  0
POLYLINE
  8
51
 66
1
 10
0.0000
 20
0.0000
 30
0.0000
 40
0.1524
 41
0.1524
 70
0
  0
VERTEX
  8
51
 10
75.6996
 20
229.8700
 30
0.0000
  0
VERTEX
  8
51
 10
75.6996
 20
230.8098
 30
0.0000
  0
SEQEND
  8
0
  0
POLYLINE
  8
51
 66
1
 10
0.0000
 20
0.0000
 30
0.0000
 40
0.0762
 41
0.0762
 70
0
  0
VERTEX
  8
51
 10
75.7377
 20
230.8098
 30
0.0000
 42
1.0000
  0
VERTEX
  8
51
 10
75.6615
 20
230.8098
 30
0.0000
  0
SEQEND
  8
0
  0
POLYLINE
  8
51
 66
1
 10
0.0000
 20
0.0000
 30
0.0000
 40
0.0762
 41
0.0762
 70
0
  0
VERTEX
  8
51
 10
75.6615
 20
229.8700
 30
0.0000
 42
1.0000
  0
VERTEX
  8
51
 10
75.7377
 20
229.8700
 30
0.0000
  0
SEQEND
  8
0
  0
POLYLINE
  8
51
 66
1
 10
0.0000
 20
0.0000
 30
0.0000
 40
0.1524
 41
0.1524
 70
0
  0
VERTEX
  8
51
 10
75.6996
 20
232.4100
 30
0.0000
  0
VERTEX
  8
51
 10
75.6996
 20
231.4448
 30
0.0000
  0
SEQEND
  8
0
  0
POLYLINE
  8
51
 66
1
 10
0.0000
 20
0.0000
 30
0.0000
 40
0.0762
 41
0.0762
 70
0
  0
VERTEX
  8
51
 10
75.6615
 20
231.4448
 30
0.0000
 42
1.0000
  0
VERTEX
  8
51
 10
75.7377
 20
231.4448
 30
0.0000
  0
SEQEND
  8
0
  0
POLYLINE
  8
51
 66
1
 10
0.0000
 20
0.0000
 30
0.0000
 40
0.0762
 41
0.0762
 70
0
  0
VERTEX
  8
51
 10
75.7377
 20
232.4100
 30
0.0000
 42
1.0000
  0
VERTEX
  8
51
 10
75.6615
 20
232.4100
 30
0.0000
  0
SEQEND
  8
0
  0
POINT
  8
23
 10
74.9376
 20
203.2000
 30
0.0000
  0
POLYLINE
  8
51
 66
1
 10
0.0000
 20
0.0000
 30
0.0000
 40
0.1524
 41
0.1524
 70
0
  0
VERTEX
  8
51
 10
74.9376
 20
201.9300
 30
0.0000
  0
VERTEX
  8
51
 10
74.9376
 20
202.8698
 30
0.0000
  0
SEQEND
  8
0
  0
POLYLINE
  8
51
 66
1
 10
0.0000
 20
0.0000
 30
0.0000
 40
0.0762
 41
0.0762
 70
0
  0
VERTEX
  8
51
 10
74.9757
 20
202.8698
 30
0.0000
 42
1.0000
  0
VERTEX
  8
51
 10
74.8995
 20
202.8698
 30
0.0000
  0
SEQEND
  8
0
  0
POLYLINE
  8
51
 66
1
 10
0.0000
 20
0.0000
 30
0.0000
 40
0.0762
 41
0.0762
 70
0
  0
VERTEX
  8
51
 10
74.8995
 20
201.9300
 30
0.0000
 42
1.0000
  0
VERTEX
  8
51
 10
74.9757
 20
201.9300
 30
0.0000
  0
SEQEND
  8
0
  0
POLYLINE
  8
51
 66
1
 10
0.0000
 20
0.0000
 30
0.0000
 40
0.1524
 41
0.1524
 70
0
  0
VERTEX
  8
51
 10
74.9376
 20
204.4700
 30
0.0000
  0
VERTEX
  8
51
 10
74.9376
 20
203.5048
 30
0.0000
  0
SEQEND
  8
0
  0
POLYLINE
  8
51
 66
1
 10
0.0000
 20
0.0000
 30
0.0000
 40
0.0762
 41
0.0762
 70
0
  0
VERTEX
  8
51
 10
74.8995
 20
203.5048
 30
0.0000
 42
1.0000
  0
VERTEX
  8
51
 10
74.9757
 20
203.5048
 30
0.0000
  0
SEQEND
  8
0
  0
POLYLINE
  8
51
 66
1
 10
0.0000
 20
0.0000
 30
0.0000
 40
0.0762
 41
0.0762
 70
0
  0
VERTEX
  8
51
 10
74.9757
 20
204.4700
 30
0.0000
 42
1.0000
  0
VERTEX
  8
51
 10
74.8995
 20
204.4700
 30
0.0000
  0
SEQEND
  8
0
  0
POINT
  8
23
 10
75.4456
 20
170.1800
 30
0.0000
  0
POLYLINE
  8
51
 66
1
 10
0.0000
 20
0.0000
 30
0.0000
 40
0.1524
 41
0.1524
 70
0
  0
VERTEX
  8
51
 10
75.4456
 20
168.9100
 30
0.0000
  0
VERTEX
  8
51
 10
75.4456
 20
169.8498
 30
0.0000
  0
SEQEND
  8
0
  0
POLYLINE
  8
51
 66
1
 10
0.0000
 20
0.0000
 30
0.0000
 40
0.0762
 41
0.0762
 70
0
  0
VERTEX
  8
51
 10
75.4837
 20
169.8498
 30
0.0000
 42
1.0000
  0
VERTEX
  8
51
 10
75.4075
 20
169.8498
 30
0.0000
  0
SEQEND
  8
0
  0
POLYLINE
  8
51
 66
1
 10
0.0000
 20
0.0000
 30
0.0000
 40
0.0762
 41
0.0762
 70
0
  0
VERTEX
  8
51
 10
75.4075
 20
168.9100
 30
0.0000
 42
1.0000
  0
VERTEX
  8
51
 10
75.4837
 20
168.9100
 30
0.0000
  0
SEQEND
  8
0
  0
POLYLINE
  8
51
 66
1
 10
0.0000
 20
0.0000
 30
0.0000
 40
0.1524
 41
0.1524
 70
0
  0
VERTEX
  8
51
 10
75.4456
 20
171.4500
 30
0.0000
  0
VERTEX
  8
51
 10
75.4456
 20
170.4848
 30
0.0000
  0
SEQEND
  8
0
  0
POLYLINE
  8
51
 66
1
 10
0.0000
 20
0.0000
 30
0.0000
 40
0.0762
 41
0.0762
 70
0
  0
VERTEX
  8
51
 10
75.4075
 20
170.4848
 30
0.0000
 42
1.0000
  0
VERTEX
  8
51
 10
75.4837
 20
170.4848
 30
0.0000
  0
SEQEND
  8
0
  0
POLYLINE
  8
51
 66
1
 10
0.0000
 20
0.0000
 30
0.0000
 40
0.0762
 41
0.0762
 70
0
  0
VERTEX
  8
51
 10
75.4837
 20
171.4500
 30
0.0000
 42
1.0000
  0
VERTEX
  8
51
 10
75.4075
 20
171.4500
 30
0.0000
  0
SEQEND
  8
0
  0
POINT
  8
23
 10
74.6836
 20
137.1600
 30
0.0000
  0
POLYLINE
  8
51
 66
1
 10
0.0000
 20
0.0000
 30
0.0000
 40
0.1524
 41
0.1524
 70
0
  0
VERTEX
  8
51
 10
74.6836
 20
135.8900
 30
0.0000
  0
VERTEX
  8
51
 10
74.6836
 20
136.8298
 30
0.0000
  0
SEQEND
  8
0
  0
POLYLINE
  8
51
 66
1
 10
0.0000
 20
0.0000
 30
0.0000
 40
0.0762
 41
0.0762
 70
0
  0
VERTEX
  8
51
 10
74.7217
 20
136.8298
 30
0.0000
 42
1.0000
  0
VERTEX
  8
51
 10
74.6455
 20
136.8298
 30
0.0000
  0
SEQEND
  8
0
  0
POLYLINE
  8
51
 66
1
 10
0.0000
 20
0.0000
 30
0.0000
 40
0.0762
 41
0.0762
 70
0
  0
VERTEX
  8
51
 10
74.6455
 20
135.8900
 30
0.0000
 42
1.0000
  0
VERTEX
  8
51
 10
74.7217
 20
135.8900
 30
0.0000
  0
SEQEND
  8
0
  0
POLYLINE
  8
51
 66
1
 10
0.0000
 20
0.0000
 30
0.0000
 40
0.1524
 41
0.1524
 70
0
  0
VERTEX
  8
51
 10
74.6836
 20
138.4300
 30
0.0000
  0
VERTEX
  8
51
 10
74.6836
 20
137.4648
 30
0.0000
  0
SEQEND
  8
0
  0
POLYLINE
  8
51
 66
1
 10
0.0000
 20
0.0000
 30
0.0000
 40
0.0762
 41
0.0762
 70
0
  0
VERTEX
  8
51
 10
74.6455
 20
137.4648
 30
0.0000
 42
1.0000
  0
VERTEX
  8
51
 10
74.7217
 20
137.4648
 30
0.0000
  0
SEQEND
  8
0
  0
POLYLINE
  8
51
 66
1
 10
0.0000
 20
0.0000
 30
0.0000
 40
0.0762
 41
0.0762
 70
0
  0
VERTEX
  8
51
 10
74.7217
 20
138.4300
 30
0.0000
 42
1.0000
  0
VERTEX
  8
51
 10
74.6455
 20
138.4300
 30
0.0000
  0
SEQEND
  8
0
  0
POINT
  8
23
 10
75.1916
 20
102.8700
 30
0.0000
  0
POLYLINE
  8
51
 66
1
 10
0.0000
 20
0.0000
 30
0.0000
 40
0.1524
 41
0.1524
 70
0
  0
VERTEX
  8
51
 10
75.1916
 20
101.6000
 30
0.0000
  0
VERTEX
  8
51
 10
75.1916
 20
102.5398
 30
0.0000
  0
SEQEND
  8
0
  0
POLYLINE
  8
51
 66
1
 10
0.0000
 20
0.0000
 30
0.0000
 40
0.0762
 41
0.0762
 70
0
  0
VERTEX
  8
51
 10
75.2297
 20
102.5398
 30
0.0000
 42
1.0000
  0
VERTEX
  8
51
 10
75.1535
 20
102.5398
 30
0.0000
  0
SEQEND
  8
0
  0
POLYLINE
  8
51
 66
1
 10
0.0000
 20
0.0000
 30
0.0000
 40
0.0762
 41
0.0762
 70
0
  0
VERTEX
  8
51
 10
75.1535
 20
101.6000
 30
0.0000
 42
1.0000
  0
VERTEX
  8
51
 10
75.2297
 20
101.6000
 30
0.0000
  0
SEQEND
  8
0
  0
POLYLINE
  8
51
 66
1
 10
0.0000
 20
0.0000
 30
0.0000
 40
0.1524
 41
0.1524
 70
0
  0
VERTEX
  8
51
 10
75.1916
 20
104.1400
 30
0.0000
  0
VERTEX
  8
51
 10
75.1916
 20
103.1748
 30
0.0000
  0
SEQEND
  8
0
  0
POLYLINE
  8
51
 66
1
 10
0.0000
 20
0.0000
 30
0.0000
 40
0.0762
 41
0.0762
 70
0
  0
VERTEX
  8
51
 10
75.1535
 20
103.1748
 30
0.0000
 42
1.0000
  0
VERTEX
  8
51
 10
75.2297
 20
103.1748
 30
0.0000
  0
SEQEND
  8
0
  0
POLYLINE
  8
51
 66
1
 10
0.0000
 20
0.0000
 30
0.0000
 40
0.0762
 41
0.0762
 70
0
  0
VERTEX
  8
51
 10
75.2297
 20
104.1400
 30
0.0000
 42
1.0000
  0
VERTEX
  8
51
 10
75.1535
 20
104.1400
 30
0.0000
  0
SEQEND
  8
0
  0
POINT
  8
23
 10
78.7400
 20
240.5964
 30
0.0000
  0
POLYLINE
  8
51
 66
1
 10
0.0000
 20
0.0000
 30
0.0000
 40
0.5080
 41
0.5080
 70
0
  0
VERTEX
  8
51
 10
78.7400
 20
244.4064
 30
0.0000
  0
VERTEX
  8
51
 10
78.7400
 20
243.5174
 30
0.0000
  0
SEQEND
  8
0
  0
POLYLINE
  8
51
 66
1
 10
0.0000
 20
0.0000
 30
0.0000
 40
0.2540
 41
0.2540
 70
0
  0
VERTEX
  8
51
 10
78.6130
 20
243.5174
 30
0.0000
 42
1.0000
  0
VERTEX
  8
51
 10
78.8670
 20
243.5174
 30
0.0000
  0
SEQEND
  8
0
  0
POLYLINE
  8
51
 66
1
 10
0.0000
 20
0.0000
 30
0.0000
 40
0.2540
 41
0.2540
 70
0
  0
VERTEX
  8
51
 10
78.8670
 20
244.4064
 30
0.0000
 42
1.0000
  0
VERTEX
  8
51
 10
78.6130
 20
244.4064
 30
0.0000
  0
SEQEND
  8
0
  0
POLYLINE
  8
51
 66
1
 10
0.0000
 20
0.0000
 30
0.0000
 40
0.5080
 41
0.5080
 70
0
  0
VERTEX
  8
51
 10
78.7400
 20
236.7864
 30
0.0000
  0
VERTEX
  8
51
 10
78.7400
 20
237.6754
 30
0.0000
  0
SEQEND
  8
0
  0
POLYLINE
  8
51
 66
1
 10
0.0000
 20
0.0000
 30
0.0000
 40
0.2540
 41
0.2540
 70
0
  0
VERTEX
  8
51
 10
78.8670
 20
237.6754
 30
0.0000
 42
1.0000
  0
VERTEX
  8
51
 10
78.6130
 20
237.6754
 30
0.0000
  0
SEQEND
  8
0
  0
POLYLINE
  8
51
 66
1
 10
0.0000
 20
0.0000
 30
0.0000
 40
0.2540
 41
0.2540
 70
0
  0
VERTEX
  8
51
 10
78.6130
 20
236.7864
 30
0.0000
 42
1.0000
  0
VERTEX
  8
51
 10
78.8670
 20
236.7864
 30
0.0000
  0
SEQEND
  8
0
  0
POINT
  8
23
 10
78.7400
 20
231.1984
 30
0.0000
  0
POLYLINE
  8
51
 66
1
 10
0.0000
 20
0.0000
 30
0.0000
 40
0.5080
 41
0.5080
 70
0
  0
VERTEX
  8
51
 10
78.7400
 20
235.0084
 30
0.0000
  0
VERTEX
  8
51
 10
78.7400
 20
234.1194
 30
0.0000
  0
SEQEND
  8
0
  0
POLYLINE
  8
51
 66
1
 10
0.0000
 20
0.0000
 30
0.0000
 40
0.2540
 41
0.2540
 70
0
  0
VERTEX
  8
51
 10
78.6130
 20
234.1194
 30
0.0000
 42
1.0000
  0
VERTEX
  8
51
 10
78.8670
 20
234.1194
 30
0.0000
  0
SEQEND
  8
0
  0
POLYLINE
  8
51
 66
1
 10
0.0000
 20
0.0000
 30
0.0000
 40
0.2540
 41
0.2540
 70
0
  0
VERTEX
  8
51
 10
78.8670
 20
235.0084
 30
0.0000
 42
1.0000
  0
VERTEX
  8
51
 10
78.6130
 20
235.0084
 30
0.0000
  0
SEQEND
  8
0
  0
POLYLINE
  8
51
 66
1
 10
0.0000
 20
0.0000
 30
0.0000
 40
0.5080
 41
0.5080
 70
0
  0
VERTEX
  8
51
 10
78.7400
 20
227.3884
 30
0.0000
  0
VERTEX
  8
51
 10
78.7400
 20
228.2774
 30
0.0000
  0
SEQEND
  8
0
  0
POLYLINE
  8
51
 66
1
 10
0.0000
 20
0.0000
 30
0.0000
 40
0.2540
 41
0.2540
 70
0
  0
VERTEX
  8
51
 10
78.8670
 20
228.2774
 30
0.0000
 42
1.0000
  0
VERTEX
  8
51
 10
78.6130
 20
228.2774
 30
0.0000
  0
SEQEND
  8
0
  0
POLYLINE
  8
51
 66
1
 10
0.0000
 20
0.0000
 30
0.0000
 40
0.2540
 41
0.2540
 70
0
  0
VERTEX
  8
51
 10
78.6130
 20
227.3884
 30
0.0000
 42
1.0000
  0
VERTEX
  8
51
 10
78.8670
 20
227.3884
 30
0.0000
  0
SEQEND
  8
0
  0
POINT
  8
23
 10
78.7400
 20
202.7504
 30
0.0000
  0
POLYLINE
  8
51
 66
1
 10
0.0000
 20
0.0000
 30
0.0000
 40
0.5080
 41
0.5080
 70
0
  0
VERTEX
  8
51
 10
78.7400
 20
206.5604
 30
0.0000
  0
VERTEX
  8
51
 10
78.7400
 20
205.6714
 30
0.0000
  0
SEQEND
  8
0
  0
POLYLINE
  8
51
 66
1
 10
0.0000
 20
0.0000
 30
0.0000
 40
0.2540
 41
0.2540
 70
0
  0
VERTEX
  8
51
 10
78.6130
 20
205.6714
 30
0.0000
 42
1.0000
  0
VERTEX
  8
51
 10
78.8670
 20
205.6714
 30
0.0000
  0
SEQEND
  8
0
  0
POLYLINE
  8
51
 66
1
 10
0.0000
 20
0.0000
 30
0.0000
 40
0.2540
 41
0.2540
 70
0
  0
VERTEX
  8
51
 10
78.8670
 20
206.5604
 30
0.0000
 42
1.0000
  0
VERTEX
  8
51
 10
78.6130
 20
206.5604
 30
0.0000
  0
SEQEND
  8
0
  0
POLYLINE
  8
51
 66
1
 10
0.0000
 20
0.0000
 30
0.0000
 40
0.5080
 41
0.5080
 70
0
  0
VERTEX
  8
51
 10
78.7400
 20
198.9404
 30
0.0000
  0
VERTEX
  8
51
 10
78.7400
 20
199.8294
 30
0.0000
  0
SEQEND
  8
0
  0
POLYLINE
  8
51
 66
1
 10
0.0000
 20
0.0000
 30
0.0000
 40
0.2540
 41
0.2540
 70
0
  0
VERTEX
  8
51
 10
78.8670
 20
199.8294
 30
0.0000
 42
1.0000
  0
VERTEX
  8
51
 10
78.6130
 20
199.8294
 30
0.0000
  0
SEQEND
  8
0
  0
POLYLINE
  8
51
 66
1
 10
0.0000
 20
0.0000
 30
0.0000
 40
0.2540
 41
0.2540
 70
0
  0
VERTEX
  8
51
 10
78.6130
 20
198.9404
 30
0.0000
 42
1.0000
  0
VERTEX
  8
51
 10
78.8670
 20
198.9404
 30
0.0000
  0
SEQEND
  8
0
  0
POINT
  8
23
 10
78.7400
 20
170.4924
 30
0.0000
  0
POLYLINE
  8
51
 66
1
 10
0.0000
 20
0.0000
 30
0.0000
 40
0.5080
 41
0.5080
 70
0
  0
VERTEX
  8
51
 10
78.7400
 20
174.3024
 30
0.0000
  0
VERTEX
  8
51
 10
78.7400
 20
173.4134
 30
0.0000
  0
SEQEND
  8
0
  0
POLYLINE
  8
51
 66
1
 10
0.0000
 20
0.0000
 30
0.0000
 40
0.2540
 41
0.2540
 70
0
  0
VERTEX
  8
51
 10
78.6130
 20
173.4134
 30
0.0000
 42
1.0000
  0
VERTEX
  8
51
 10
78.8670
 20
173.4134
 30
0.0000
  0
SEQEND
  8
0
  0
POLYLINE
  8
51
 66
1
 10
0.0000
 20
0.0000
 30
0.0000
 40
0.2540
 41
0.2540
 70
0
  0
VERTEX
  8
51
 10
78.8670
 20
174.3024
 30
0.0000
 42
1.0000
  0
VERTEX
  8
51
 10
78.6130
 20
174.3024
 30
0.0000
  0
SEQEND
  8
0
  0
POLYLINE
  8
51
 66
1
 10
0.0000
 20
0.0000
 30
0.0000
 40
0.5080
 41
0.5080
 70
0
  0
VERTEX
  8
51
 10
78.7400
 20
166.6824
 30
0.0000
  0
VERTEX
  8
51
 10
78.7400
 20
167.5714
 30
0.0000
  0
SEQEND
  8
0
  0
POLYLINE
  8
51
 66
1
 10
0.0000
 20
0.0000
 30
0.0000
 40
0.2540
 41
0.2540
 70
0
  0
VERTEX
  8
51
 10
78.8670
 20
167.5714
 30
0.0000
 42
1.0000
  0
VERTEX
  8
51
 10
78.6130
 20
167.5714
 30
0.0000
  0
SEQEND
  8
0
  0
POLYLINE
  8
51
 66
1
 10
0.0000
 20
0.0000
 30
0.0000
 40
0.2540
 41
0.2540
 70
0
  0
VERTEX
  8
51
 10
78.6130
 20
166.6824
 30
0.0000
 42
1.0000
  0
VERTEX
  8
51
 10
78.8670
 20
166.6824
 30
0.0000
  0
SEQEND
  8
0
  0
POINT
  8
23
 10
78.7400
 20
136.9644
 30
0.0000
  0
POLYLINE
  8
51
 66
1
 10
0.0000
 20
0.0000
 30
0.0000
 40
0.5080
 41
0.5080
 70
0
  0
VERTEX
  8
51
 10
78.7400
 20
140.7744
 30
0.0000
  0
VERTEX
  8
51
 10
78.7400
 20
139.8854
 30
0.0000
  0
SEQEND
  8
0
  0
POLYLINE
  8
51
 66
1
 10
0.0000
 20
0.0000
 30
0.0000
 40
0.2540
 41
0.2540
 70
0
  0
VERTEX
  8
51
 10
78.6130
 20
139.8854
 30
0.0000
 42
1.0000
  0
VERTEX
  8
51
 10
78.8670
 20
139.8854
 30
0.0000
  0
SEQEND
  8
0
  0
POLYLINE
  8
51
 66
1
 10
0.0000
 20
0.0000
 30
0.0000
 40
0.2540
 41
0.2540
 70
0
  0
VERTEX
  8
51
 10
78.8670
 20
140.7744
 30
0.0000
 42
1.0000
  0
VERTEX
  8
51
 10
78.6130
 20
140.7744
 30
0.0000
  0
SEQEND
  8
0
  0
POLYLINE
  8
51
 66
1
 10
0.0000
 20
0.0000
 30
0.0000
 40
0.5080
 41
0.5080
 70
0
  0
VERTEX
  8
51
 10
78.7400
 20
133.1544
 30
0.0000
  0
VERTEX
  8
51
 10
78.7400
 20
134.0434
 30
0.0000
  0
SEQEND
  8
0
  0
POLYLINE
  8
51
 66
1
 10
0.0000
 20
0.0000
 30
0.0000
 40
0.2540
 41
0.2540
 70
0
  0
VERTEX
  8
51
 10
78.8670
 20
134.0434
 30
0.0000
 42
1.0000
  0
VERTEX
  8
51
 10
78.6130
 20
134.0434
 30
0.0000
  0
SEQEND
  8
0
  0
POLYLINE
  8
51
 66
1
 10
0.0000
 20
0.0000
 30
0.0000
 40
0.2540
 41
0.2540
 70
0
  0
VERTEX
  8
51
 10
78.6130
 20
133.1544
 30
0.0000
 42
1.0000
  0
VERTEX
  8
51
 10
78.8670
 20
133.1544
 30
0.0000
  0
SEQEND
  8
0
  0
POINT
  8
23
 10
78.7400
 20
103.4364
 30
0.0000
  0
POLYLINE
  8
51
 66
1
 10
0.0000
 20
0.0000
 30
0.0000
 40
0.5080
 41
0.5080
 70
0
  0
VERTEX
  8
51
 10
78.7400
 20
107.2464
 30
0.0000
  0
VERTEX
  8
51
 10
78.7400
 20
106.3574
 30
0.0000
  0
SEQEND
  8
0
  0
POLYLINE
  8
51
 66
1
 10
0.0000
 20
0.0000
 30
0.0000
 40
0.2540
 41
0.2540
 70
0
  0
VERTEX
  8
51
 10
78.6130
 20
106.3574
 30
0.0000
 42
1.0000
  0
VERTEX
  8
51
 10
78.8670
 20
106.3574
 30
0.0000
  0
SEQEND
  8
0
  0
POLYLINE
  8
51
 66
1
 10
0.0000
 20
0.0000
 30
0.0000
 40
0.2540
 41
0.2540
 70
0
  0
VERTEX
  8
51
 10
78.8670
 20
107.2464
 30
0.0000
 42
1.0000
  0
VERTEX
  8
51
 10
78.6130
 20
107.2464
 30
0.0000
  0
SEQEND
  8
0
  0
POLYLINE
  8
51
 66
1
 10
0.0000
 20
0.0000
 30
0.0000
 40
0.5080
 41
0.5080
 70
0
  0
VERTEX
  8
51
 10
78.7400
 20
99.6264
 30
0.0000
  0
VERTEX
  8
51
 10
78.7400
 20
100.5154
 30
0.0000
  0
SEQEND
  8
0
  0
POLYLINE
  8
51
 66
1
 10
0.0000
 20
0.0000
 30
0.0000
 40
0.2540
 41
0.2540
 70
0
  0
VERTEX
  8
51
 10
78.8670
 20
100.5154
 30
0.0000
 42
1.0000
  0
VERTEX
  8
51
 10
78.6130
 20
100.5154
 30
0.0000
  0
SEQEND
  8
0
  0
POLYLINE
  8
51
 66
1
 10
0.0000
 20
0.0000
 30
0.0000
 40
0.2540
 41
0.2540
 70
0
  0
VERTEX
  8
51
 10
78.6130
 20
99.6264
 30
0.0000
 42
1.0000
  0
VERTEX
  8
51
 10
78.8670
 20
99.6264
 30
0.0000
  0
SEQEND
  8
0
  0
POINT
  8
23
 10
76.9020
 20
251.1860
 30
0.0000
  0
POLYLINE
  8
51
 66
1
 10
0.0000
 20
0.0000
 30
0.0000
 40
0.2032
 41
0.2032
 70
0
  0
VERTEX
  8
51
 10
78.6520
 20
254.1860
 30
0.0000
  0
VERTEX
  8
51
 10
78.6520
 20
248.1860
 30
0.0000
  0
SEQEND
  8
0
  0
POLYLINE
  8
51
 66
1
 10
0.0000
 20
0.0000
 30
0.0000
 40
0.1016
 41
0.1016
 70
0
  0
VERTEX
  8
51
 10
78.6012
 20
248.1860
 30
0.0000
 42
1.0000
  0
VERTEX
  8
51
 10
78.7028
 20
248.1860
 30
0.0000
  0
SEQEND
  8
0
  0
POLYLINE
  8
51
 66
1
 10
0.0000
 20
0.0000
 30
0.0000
 40
0.1016
 41
0.1016
 70
0
  0
VERTEX
  8
51
 10
78.7028
 20
254.1860
 30
0.0000
 42
1.0000
  0
VERTEX
  8
51
 10
78.6012
 20
254.1860
 30
0.0000
  0
SEQEND
  8
0
  0
POLYLINE
  8
51
 66
1
 10
0.0000
 20
0.0000
 30
0.0000
 40
0.2032
 41
0.2032
 70
0
  0
VERTEX
  8
51
 10
78.6520
 20
248.1860
 30
0.0000
  0
VERTEX
  8
51
 10
75.1520
 20
248.1860
 30
0.0000
  0
SEQEND
  8
0
  0
POLYLINE
  8
51
 66
1
 10
0.0000
 20
0.0000
 30
0.0000
 40
0.1016
 41
0.1016
 70
0
  0
VERTEX
  8
51
 10
75.1520
 20
248.2368
 30
0.0000
 42
1.0000
  0
VERTEX
  8
51
 10
75.1520
 20
248.1352
 30
0.0000
  0
SEQEND
  8
0
  0
POLYLINE
  8
51
 66
1
 10
0.0000
 20
0.0000
 30
0.0000
 40
0.1016
 41
0.1016
 70
0
  0
VERTEX
  8
51
 10
78.6520
 20
248.1352
 30
0.0000
 42
1.0000
  0
VERTEX
  8
51
 10
78.6520
 20
248.2368
 30
0.0000
  0
SEQEND
  8
0
  0
POLYLINE
  8
51
 66
1
 10
0.0000
 20
0.0000
 30
0.0000
 40
0.2032
 41
0.2032
 70
0
  0
VERTEX
  8
51
 10
75.1520
 20
248.1860
 30
0.0000
  0
VERTEX
  8
51
 10
75.1520
 20
254.1860
 30
0.0000
  0
SEQEND
  8
0
  0
POLYLINE
  8
51
 66
1
 10
0.0000
 20
0.0000
 30
0.0000
 40
0.1016
 41
0.1016
 70
0
  0
VERTEX
  8
51
 10
75.2028
 20
254.1860
 30
0.0000
 42
1.0000
  0
VERTEX
  8
51
 10
75.1012
 20
254.1860
 30
0.0000
  0
SEQEND
  8
0
  0
POLYLINE
  8
51
 66
1
 10
0.0000
 20
0.0000
 30
0.0000
 40
0.1016
 41
0.1016
 70
0
  0
VERTEX
  8
51
 10
75.1012
 20
248.1860
 30
0.0000
 42
1.0000
  0
VERTEX
  8
51
 10
75.2028
 20
248.1860
 30
0.0000
  0
SEQEND
  8
0
  0
POLYLINE
  8
51
 66
1
 10
0.0000
 20
0.0000
 30
0.0000
 40
0.2032
 41
0.2032
 70
0
  0
VERTEX
  8
51
 10
75.1520
 20
254.1860
 30
0.0000
  0
VERTEX
  8
51
 10
78.6520
 20
254.1860
 30
0.0000
  0
SEQEND
  8
0
  0
POLYLINE
  8
51
 66
1
 10
0.0000
 20
0.0000
 30
0.0000
 40
0.1016
 41
0.1016
 70
0
  0
VERTEX
  8
51
 10
78.6520
 20
254.1352
 30
0.0000
 42
1.0000
  0
VERTEX
  8
51
 10
78.6520
 20
254.2368
 30
0.0000
  0
SEQEND
  8
0
  0
POLYLINE
  8
51
 66
1
 10
0.0000
 20
0.0000
 30
0.0000
 40
0.1016
 41
0.1016
 70
0
  0
VERTEX
  8
51
 10
75.1520
 20
254.2368
 30
0.0000
 42
1.0000
  0
VERTEX
  8
51
 10
75.1520
 20
254.1352
 30
0.0000
  0
SEQEND
  8
0
  0
POLYLINE
  8
51
 66
1
 10
0.0000
 20
0.0000
 30
0.0000
 40
0.2032
 41
0.2032
 70
0
  0
VERTEX
  8
51
 10
77.6520
 20
252.6860
 30
0.0000
  0
VERTEX
  8
51
 10
77.6520
 20
249.6860
 30
0.0000
  0
SEQEND
  8
0
  0
POLYLINE
  8
51
 66
1
 10
0.0000
 20
0.0000
 30
0.0000
 40
0.1016
 41
0.1016
 70
0
  0
VERTEX
  8
51
 10
77.6012
 20
249.6860
 30
0.0000
 42
1.0000
  0
VERTEX
  8
51
 10
77.7028
 20
249.6860
 30
0.0000
  0
SEQEND
  8
0
  0
POLYLINE
  8
51
 66
1
 10
0.0000
 20
0.0000
 30
0.0000
 40
0.1016
 41
0.1016
 70
0
  0
VERTEX
  8
51
 10
77.7028
 20
252.6860
 30
0.0000
 42
1.0000
  0
VERTEX
  8
51
 10
77.6012
 20
252.6860
 30
0.0000
  0
SEQEND
  8
0
  0
POLYLINE
  8
51
 66
1
 10
0.0000
 20
0.0000
 30
0.0000
 40
0.2032
 41
0.2032
 70
0
  0
VERTEX
  8
51
 10
77.6520
 20
249.6860
 30
0.0000
  0
VERTEX
  8
51
 10
76.1520
 20
249.6860
 30
0.0000
  0
SEQEND
  8
0
  0
POLYLINE
  8
51
 66
1
 10
0.0000
 20
0.0000
 30
0.0000
 40
0.1016
 41
0.1016
 70
0
  0
VERTEX
  8
51
 10
76.1520
 20
249.7368
 30
0.0000
 42
1.0000
  0
VERTEX
  8
51
 10
76.1520
 20
249.6352
 30
0.0000
  0
SEQEND
  8
0
  0
POLYLINE
  8
51
 66
1
 10
0.0000
 20
0.0000
 30
0.0000
 40
0.1016
 41
0.1016
 70
0
  0
VERTEX
  8
51
 10
77.6520
 20
249.6352
 30
0.0000
 42
1.0000
  0
VERTEX
  8
51
 10
77.6520
 20
249.7368
 30
0.0000
  0
SEQEND
  8
0
  0
POLYLINE
  8
51
 66
1
 10
0.0000
 20
0.0000
 30
0.0000
 40
0.2032
 41
0.2032
 70
0
  0
VERTEX
  8
51
 10
76.1520
 20
249.6860
 30
0.0000
  0
VERTEX
  8
51
 10
76.1520
 20
252.6860
 30
0.0000
  0
SEQEND
  8
0
  0
POLYLINE
  8
51
 66
1
 10
0.0000
 20
0.0000
 30
0.0000
 40
0.1016
 41
0.1016
 70
0
  0
VERTEX
  8
51
 10
76.2028
 20
252.6860
 30
0.0000
 42
1.0000
  0
VERTEX
  8
51
 10
76.1012
 20
252.6860
 30
0.0000
  0
SEQEND
  8
0
  0
POLYLINE
  8
51
 66
1
 10
0.0000
 20
0.0000
 30
0.0000
 40
0.1016
 41
0.1016
 70
0
  0
VERTEX
  8
51
 10
76.1012
 20
249.6860
 30
0.0000
 42
1.0000
  0
VERTEX
  8
51
 10
76.2028
 20
249.6860
 30
0.0000
  0
SEQEND
  8
0
  0
POLYLINE
  8
51
 66
1
 10
0.0000
 20
0.0000
 30
0.0000
 40
0.2032
 41
0.2032
 70
0
  0
VERTEX
  8
51
 10
76.1520
 20
252.6860
 30
0.0000
  0
VERTEX
  8
51
 10
77.6520
 20
252.6860
 30
0.0000
  0
SEQEND
  8
0
  0
POLYLINE
  8
51
 66
1
 10
0.0000
 20
0.0000
 30
0.0000
 40
0.1016
 41
0.1016
 70
0
  0
VERTEX
  8
51
 10
77.6520
 20
252.6352
 30
0.0000
 42
1.0000
  0
VERTEX
  8
51
 10
77.6520
 20
252.7368
 30
0.0000
  0
SEQEND
  8
0
  0
POLYLINE
  8
51
 66
1
 10
0.0000
 20
0.0000
 30
0.0000
 40
0.1016
 41
0.1016
 70
0
  0
VERTEX
  8
51
 10
76.1520
 20
252.7368
 30
0.0000
 42
1.0000
  0
VERTEX
  8
51
 10
76.1520
 20
252.6352
 30
0.0000
  0
SEQEND
  8
0
  0
POINT
  8
23
 10
76.3270
 20
218.6628
 30
0.0000
  0
POLYLINE
  8
51
 66
1
 10
0.0000
 20
0.0000
 30
0.0000
 40
0.2032
 41
0.2032
 70
0
  0
VERTEX
  8
51
 10
74.5770
 20
215.6628
 30
0.0000
  0
VERTEX
  8
51
 10
74.5770
 20
221.6628
 30
0.0000
  0
SEQEND
  8
0
  0
POLYLINE
  8
51
 66
1
 10
0.0000
 20
0.0000
 30
0.0000
 40
0.1016
 41
0.1016
 70
0
  0
VERTEX
  8
51
 10
74.6278
 20
221.6628
 30
0.0000
 42
1.0000
  0
VERTEX
  8
51
 10
74.5262
 20
221.6628
 30
0.0000
  0
SEQEND
  8
0
  0
POLYLINE
  8
51
 66
1
 10
0.0000
 20
0.0000
 30
0.0000
 40
0.1016
 41
0.1016
 70
0
  0
VERTEX
  8
51
 10
74.5262
 20
215.6628
 30
0.0000
 42
1.0000
  0
VERTEX
  8
51
 10
74.6278
 20
215.6628
 30
0.0000
  0
SEQEND
  8
0
  0
POLYLINE
  8
51
 66
1
 10
0.0000
 20
0.0000
 30
0.0000
 40
0.2032
 41
0.2032
 70
0
  0
VERTEX
  8
51
 10
74.5770
 20
221.6628
 30
0.0000
  0
VERTEX
  8
51
 10
78.0770
 20
221.6628
 30
0.0000
  0
SEQEND
  8
0
  0
POLYLINE
  8
51
 66
1
 10
0.0000
 20
0.0000
 30
0.0000
 40
0.1016
 41
0.1016
 70
0
  0
VERTEX
  8
51
 10
78.0770
 20
221.6120
 30
0.0000
 42
1.0000
  0
VERTEX
  8
51
 10
78.0770
 20
221.7136
 30
0.0000
  0
SEQEND
  8
0
  0
POLYLINE
  8
51
 66
1
 10
0.0000
 20
0.0000
 30
0.0000
 40
0.1016
 41
0.1016
 70
0
  0
VERTEX
  8
51
 10
74.5770
 20
221.7136
 30
0.0000
 42
1.0000
  0
VERTEX
  8
51
 10
74.5770
 20
221.6120
 30
0.0000
  0
SEQEND
  8
0
  0
POLYLINE
  8
51
 66
1
 10
0.0000
 20
0.0000
 30
0.0000
 40
0.2032
 41
0.2032
 70
0
  0
VERTEX
  8
51
 10
78.0770
 20
221.6628
 30
0.0000
  0
VERTEX
  8
51
 10
78.0770
 20
215.6628
 30
0.0000
  0
SEQEND
  8
0
  0
POLYLINE
  8
51
 66
1
 10
0.0000
 20
0.0000
 30
0.0000
 40
0.1016
 41
0.1016
 70
0
  0
VERTEX
  8
51
 10
78.0262
 20
215.6628
 30
0.0000
 42
1.0000
  0
VERTEX
  8
51
 10
78.1278
 20
215.6628
 30
0.0000
  0
SEQEND
  8
0
  0
POLYLINE
  8
51
 66
1
 10
0.0000
 20
0.0000
 30
0.0000
 40
0.1016
 41
0.1016
 70
0
  0
VERTEX
  8
51
 10
78.1278
 20
221.6628
 30
0.0000
 42
1.0000
  0
VERTEX
  8
51
 10
78.0262
 20
221.6628
 30
0.0000
  0
SEQEND
  8
0
  0
POLYLINE
  8
51
 66
1
 10
0.0000
 20
0.0000
 30
0.0000
 40
0.2032
 41
0.2032
 70
0
  0
VERTEX
  8
51
 10
78.0770
 20
215.6628
 30
0.0000
  0
VERTEX
  8
51
 10
74.5770
 20
215.6628
 30
0.0000
  0
SEQEND
  8
0
  0
POLYLINE
  8
51
 66
1
 10
0.0000
 20
0.0000
 30
0.0000
 40
0.1016
 41
0.1016
 70
0
  0
VERTEX
  8
51
 10
74.5770
 20
215.7136
 30
0.0000
 42
1.0000
  0
VERTEX
  8
51
 10
74.5770
 20
215.6120
 30
0.0000
  0
SEQEND
  8
0
  0
POLYLINE
  8
51
 66
1
 10
0.0000
 20
0.0000
 30
0.0000
 40
0.1016
 41
0.1016
 70
0
  0
VERTEX
  8
51
 10
78.0770
 20
215.6120
 30
0.0000
 42
1.0000
  0
VERTEX
  8
51
 10
78.0770
 20
215.7136
 30
0.0000
  0
SEQEND
  8
0
  0
POLYLINE
  8
51
 66
1
 10
0.0000
 20
0.0000
 30
0.0000
 40
0.2032
 41
0.2032
 70
0
  0
VERTEX
  8
51
 10
75.5770
 20
217.1628
 30
0.0000
  0
VERTEX
  8
51
 10
75.5770
 20
220.1628
 30
0.0000
  0
SEQEND
  8
0
  0
POLYLINE
  8
51
 66
1
 10
0.0000
 20
0.0000
 30
0.0000
 40
0.1016
 41
0.1016
 70
0
  0
VERTEX
  8
51
 10
75.6278
 20
220.1628
 30
0.0000
 42
1.0000
  0
VERTEX
  8
51
 10
75.5262
 20
220.1628
 30
0.0000
  0
SEQEND
  8
0
  0
POLYLINE
  8
51
 66
1
 10
0.0000
 20
0.0000
 30
0.0000
 40
0.1016
 41
0.1016
 70
0
  0
VERTEX
  8
51
 10
75.5262
 20
217.1628
 30
0.0000
 42
1.0000
  0
VERTEX
  8
51
 10
75.6278
 20
217.1628
 30
0.0000
  0
SEQEND
  8
0
  0
POLYLINE
  8
51
 66
1
 10
0.0000
 20
0.0000
 30
0.0000
 40
0.2032
 41
0.2032
 70
0
  0
VERTEX
  8
51
 10
75.5770
 20
220.1628
 30
0.0000
  0
VERTEX
  8
51
 10
77.0770
 20
220.1628
 30
0.0000
  0
SEQEND
  8
0
  0
POLYLINE
  8
51
 66
1
 10
0.0000
 20
0.0000
 30
0.0000
 40
0.1016
 41
0.1016
 70
0
  0
VERTEX
  8
51
 10
77.0770
 20
220.1120
 30
0.0000
 42
1.0000
  0
VERTEX
  8
51
 10
77.0770
 20
220.2136
 30
0.0000
  0
SEQEND
  8
0
  0
POLYLINE
  8
51
 66
1
 10
0.0000
 20
0.0000
 30
0.0000
 40
0.1016
 41
0.1016
 70
0
  0
VERTEX
  8
51
 10
75.5770
 20
220.2136
 30
0.0000
 42
1.0000
  0
VERTEX
  8
51
 10
75.5770
 20
220.1120
 30
0.0000
  0
SEQEND
  8
0
  0
POLYLINE
  8
51
 66
1
 10
0.0000
 20
0.0000
 30
0.0000
 40
0.2032
 41
0.2032
 70
0
  0
VERTEX
  8
51
 10
77.0770
 20
220.1628
 30
0.0000
  0
VERTEX
  8
51
 10
77.0770
 20
217.1628
 30
0.0000
  0
SEQEND
  8
0
  0
POLYLINE
  8
51
 66
1
 10
0.0000
 20
0.0000
 30
0.0000
 40
0.1016
 41
0.1016
 70
0
  0
VERTEX
  8
51
 10
77.0262
 20
217.1628
 30
0.0000
 42
1.0000
  0
VERTEX
  8
51
 10
77.1278
 20
217.1628
 30
0.0000
  0
SEQEND
  8
0
  0
POLYLINE
  8
51
 66
1
 10
0.0000
 20
0.0000
 30
0.0000
 40
0.1016
 41
0.1016
 70
0
  0
VERTEX
  8
51
 10
77.1278
 20
220.1628
 30
0.0000
 42
1.0000
  0
VERTEX
  8
51
 10
77.0262
 20
220.1628
 30
0.0000
  0
SEQEND
  8
0
  0
POLYLINE
  8
51
 66
1
 10
0.0000
 20
0.0000
 30
0.0000
 40
0.2032
 41
0.2032
 70
0
  0
VERTEX
  8
51
 10
77.0770
 20
217.1628
 30
0.0000
  0
VERTEX
  8
51
 10
75.5770
 20
217.1628
 30
0.0000
  0
SEQEND
  8
0
  0
POLYLINE
  8
51
 66
1
 10
0.0000
 20
0.0000
 30
0.0000
 40
0.1016
 41
0.1016
 70
0
  0
VERTEX
  8
51
 10
75.5770
 20
217.2136
 30
0.0000
 42
1.0000
  0
VERTEX
  8
51
 10
75.5770
 20
217.1120
 30
0.0000
  0
SEQEND
  8
0
  0
POLYLINE
  8
51
 66
1
 10
0.0000
 20
0.0000
 30
0.0000
 40
0.1016
 41
0.1016
 70
0
  0
VERTEX
  8
51
 10
77.0770
 20
217.1120
 30
0.0000
 42
1.0000
  0
VERTEX
  8
51
 10
77.0770
 20
217.2136
 30
0.0000
  0
SEQEND
  8
0
  0
POINT
  8
23
 10
76.3270
 20
186.1396
 30
0.0000
  0
POLYLINE
  8
51
 66
1
 10
0.0000
 20
0.0000
 30
0.0000
 40
0.2032
 41
0.2032
 70
0
  0
VERTEX
  8
51
 10
74.5770
 20
183.1396
 30
0.0000
  0
VERTEX
  8
51
 10
74.5770
 20
189.1396
 30
0.0000
  0
SEQEND
  8
0
  0
POLYLINE
  8
51
 66
1
 10
0.0000
 20
0.0000
 30
0.0000
 40
0.1016
 41
0.1016
 70
0
  0
VERTEX
  8
51
 10
74.6278
 20
189.1396
 30
0.0000
 42
1.0000
  0
VERTEX
  8
51
 10
74.5262
 20
189.1396
 30
0.0000
  0
SEQEND
  8
0
  0
POLYLINE
  8
51
 66
1
 10
0.0000
 20
0.0000
 30
0.0000
 40
0.1016
 41
0.1016
 70
0
  0
VERTEX
  8
51
 10
74.5262
 20
183.1396
 30
0.0000
 42
1.0000
  0
VERTEX
  8
51
 10
74.6278
 20
183.1396
 30
0.0000
  0
SEQEND
  8
0
  0
POLYLINE
  8
51
 66
1
 10
0.0000
 20
0.0000
 30
0.0000
 40
0.2032
 41
0.2032
 70
0
  0
VERTEX
  8
51
 10
74.5770
 20
189.1396
 30
0.0000
  0
VERTEX
  8
51
 10
78.0770
 20
189.1396
 30
0.0000
  0
SEQEND
  8
0
  0
POLYLINE
  8
51
 66
1
 10
0.0000
 20
0.0000
 30
0.0000
 40
0.1016
 41
0.1016
 70
0
  0
VERTEX
  8
51
 10
78.0770
 20
189.0888
 30
0.0000
 42
1.0000
  0
VERTEX
  8
51
 10
78.0770
 20
189.1904
 30
0.0000
  0
SEQEND
  8
0
  0
POLYLINE
  8
51
 66
1
 10
0.0000
 20
0.0000
 30
0.0000
 40
0.1016
 41
0.1016
 70
0
  0
VERTEX
  8
51
 10
74.5770
 20
189.1904
 30
0.0000
 42
1.0000
  0
VERTEX
  8
51
 10
74.5770
 20
189.0888
 30
0.0000
  0
SEQEND
  8
0
  0
POLYLINE
  8
51
 66
1
 10
0.0000
 20
0.0000
 30
0.0000
 40
0.2032
 41
0.2032
 70
0
  0
VERTEX
  8
51
 10
78.0770
 20
189.1396
 30
0.0000
  0
VERTEX
  8
51
 10
78.0770
 20
183.1396
 30
0.0000
  0
SEQEND
  8
0
  0
POLYLINE
  8
51
 66
1
 10
0.0000
 20
0.0000
 30
0.0000
 40
0.1016
 41
0.1016
 70
0
  0
VERTEX
  8
51
 10
78.0262
 20
183.1396
 30
0.0000
 42
1.0000
  0
VERTEX
  8
51
 10
78.1278
 20
183.1396
 30
0.0000
  0
SEQEND
  8
0
  0
POLYLINE
  8
51
 66
1
 10
0.0000
 20
0.0000
 30
0.0000
 40
0.1016
 41
0.1016
 70
0
  0
VERTEX
  8
51
 10
78.1278
 20
189.1396
 30
0.0000
 42
1.0000
  0
VERTEX
  8
51
 10
78.0262
 20
189.1396
 30
0.0000
  0
SEQEND
  8
0
  0
POLYLINE
  8
51
 66
1
 10
0.0000
 20
0.0000
 30
0.0000
 40
0.2032
 41
0.2032
 70
0
  0
VERTEX
  8
51
 10
78.0770
 20
183.1396
 30
0.0000
  0
VERTEX
  8
51
 10
74.5770
 20
183.1396
 30
0.0000
  0
SEQEND
  8
0
  0
POLYLINE
  8
51
 66
1
 10
0.0000
 20
0.0000
 30
0.0000
 40
0.1016
 41
0.1016
 70
0
  0
VERTEX
  8
51
 10
74.5770
 20
183.1904
 30
0.0000
 42
1.0000
  0
VERTEX
  8
51
 10
74.5770
 20
183.0888
 30
0.0000
  0
SEQEND
  8
0
  0
POLYLINE
  8
51
 66
1
 10
0.0000
 20
0.0000
 30
0.0000
 40
0.1016
 41
0.1016
 70
0
  0
VERTEX
  8
51
 10
78.0770
 20
183.0888
 30
0.0000
 42
1.0000
  0
VERTEX
  8
51
 10
78.0770
 20
183.1904
 30
0.0000
  0
SEQEND
  8
0
  0
POLYLINE
  8
51
 66
1
 10
0.0000
 20
0.0000
 30
0.0000
 40
0.2032
 41
0.2032
 70
0
  0
VERTEX
  8
51
 10
75.5770
 20
184.6396
 30
0.0000
  0
VERTEX
  8
51
 10
75.5770
 20
187.6396
 30
0.0000
  0
SEQEND
  8
0
  0
POLYLINE
  8
51
 66
1
 10
0.0000
 20
0.0000
 30
0.0000
 40
0.1016
 41
0.1016
 70
0
  0
VERTEX
  8
51
 10
75.6278
 20
187.6396
 30
0.0000
 42
1.0000
  0
VERTEX
  8
51
 10
75.5262
 20
187.6396
 30
0.0000
  0
SEQEND
  8
0
  0
POLYLINE
  8
51
 66
1
 10
0.0000
 20
0.0000
 30
0.0000
 40
0.1016
 41
0.1016
 70
0
  0
VERTEX
  8
51
 10
75.5262
 20
184.6396
 30
0.0000
 42
1.0000
  0
VERTEX
  8
51
 10
75.6278
 20
184.6396
 30
0.0000
  0
SEQEND
  8
0
  0
POLYLINE
  8
51
 66
1
 10
0.0000
 20
0.0000
 30
0.0000
 40
0.2032
 41
0.2032
 70
0
  0
VERTEX
  8
51
 10
75.5770
 20
187.6396
 30
0.0000
  0
VERTEX
  8
51
 10
77.0770
 20
187.6396
 30
0.0000
  0
SEQEND
  8
0
  0
POLYLINE
  8
51
 66
1
 10
0.0000
 20
0.0000
 30
0.0000
 40
0.1016
 41
0.1016
 70
0
  0
VERTEX
  8
51
 10
77.0770
 20
187.5888
 30
0.0000
 42
1.0000
  0
VERTEX
  8
51
 10
77.0770
 20
187.6904
 30
0.0000
  0
SEQEND
  8
0
  0
POLYLINE
  8
51
 66
1
 10
0.0000
 20
0.0000
 30
0.0000
 40
0.1016
 41
0.1016
 70
0
  0
VERTEX
  8
51
 10
75.5770
 20
187.6904
 30
0.0000
 42
1.0000
  0
VERTEX
  8
51
 10
75.5770
 20
187.5888
 30
0.0000
  0
SEQEND
  8
0
  0
POLYLINE
  8
51
 66
1
 10
0.0000
 20
0.0000
 30
0.0000
 40
0.2032
 41
0.2032
 70
0
  0
VERTEX
  8
51
 10
77.0770
 20
187.6396
 30
0.0000
  0
VERTEX
  8
51
 10
77.0770
 20
184.6396
 30
0.0000
  0
SEQEND
  8
0
  0
POLYLINE
  8
51
 66
1
 10
0.0000
 20
0.0000
 30
0.0000
 40
0.1016
 41
0.1016
 70
0
  0
VERTEX
  8
51
 10
77.0262
 20
184.6396
 30
0.0000
 42
1.0000
  0
VERTEX
  8
51
 10
77.1278
 20
184.6396
 30
0.0000
  0
SEQEND
  8
0
  0
POLYLINE
  8
51
 66
1
 10
0.0000
 20
0.0000
 30
0.0000
 40
0.1016
 41
0.1016
 70
0
  0
VERTEX
  8
51
 10
77.1278
 20
187.6396
 30
0.0000
 42
1.0000
  0
VERTEX
  8
51
 10
77.0262
 20
187.6396
 30
0.0000
  0
SEQEND
  8
0
  0
POLYLINE
  8
51
 66
1
 10
0.0000
 20
0.0000
 30
0.0000
 40
0.2032
 41
0.2032
 70
0
  0
VERTEX
  8
51
 10
77.0770
 20
184.6396
 30
0.0000
  0
VERTEX
  8
51
 10
75.5770
 20
184.6396
 30
0.0000
  0
SEQEND
  8
0
  0
POLYLINE
  8
51
 66
1
 10
0.0000
 20
0.0000
 30
0.0000
 40
0.1016
 41
0.1016
 70
0
  0
VERTEX
  8
51
 10
75.5770
 20
184.6904
 30
0.0000
 42
1.0000
  0
VERTEX
  8
51
 10
75.5770
 20
184.5888
 30
0.0000
  0
SEQEND
  8
0
  0
POLYLINE
  8
51
 66
1
 10
0.0000
 20
0.0000
 30
0.0000
 40
0.1016
 41
0.1016
 70
0
  0
VERTEX
  8
51
 10
77.0770
 20
184.5888
 30
0.0000
 42
1.0000
  0
VERTEX
  8
51
 10
77.0770
 20
184.6904
 30
0.0000
  0
SEQEND
  8
0
  0
POINT
  8
23
 10
76.3270
 20
153.6164
 30
0.0000
  0
POLYLINE
  8
51
 66
1
 10
0.0000
 20
0.0000
 30
0.0000
 40
0.2032
 41
0.2032
 70
0
  0
VERTEX
  8
51
 10
74.5770
 20
150.6164
 30
0.0000
  0
VERTEX
  8
51
 10
74.5770
 20
156.6164
 30
0.0000
  0
SEQEND
  8
0
  0
POLYLINE
  8
51
 66
1
 10
0.0000
 20
0.0000
 30
0.0000
 40
0.1016
 41
0.1016
 70
0
  0
VERTEX
  8
51
 10
74.6278
 20
156.6164
 30
0.0000
 42
1.0000
  0
VERTEX
  8
51
 10
74.5262
 20
156.6164
 30
0.0000
  0
SEQEND
  8
0
  0
POLYLINE
  8
51
 66
1
 10
0.0000
 20
0.0000
 30
0.0000
 40
0.1016
 41
0.1016
 70
0
  0
VERTEX
  8
51
 10
74.5262
 20
150.6164
 30
0.0000
 42
1.0000
  0
VERTEX
  8
51
 10
74.6278
 20
150.6164
 30
0.0000
  0
SEQEND
  8
0
  0
POLYLINE
  8
51
 66
1
 10
0.0000
 20
0.0000
 30
0.0000
 40
0.2032
 41
0.2032
 70
0
  0
VERTEX
  8
51
 10
74.5770
 20
156.6164
 30
0.0000
  0
VERTEX
  8
51
 10
78.0770
 20
156.6164
 30
0.0000
  0
SEQEND
  8
0
  0
POLYLINE
  8
51
 66
1
 10
0.0000
 20
0.0000
 30
0.0000
 40
0.1016
 41
0.1016
 70
0
  0
VERTEX
  8
51
 10
78.0770
 20
156.5656
 30
0.0000
 42
1.0000
  0
VERTEX
  8
51
 10
78.0770
 20
156.6672
 30
0.0000
  0
SEQEND
  8
0
  0
POLYLINE
  8
51
 66
1
 10
0.0000
 20
0.0000
 30
0.0000
 40
0.1016
 41
0.1016
 70
0
  0
VERTEX
  8
51
 10
74.5770
 20
156.6672
 30
0.0000
 42
1.0000
  0
VERTEX
  8
51
 10
74.5770
 20
156.5656
 30
0.0000
  0
SEQEND
  8
0
  0
POLYLINE
  8
51
 66
1
 10
0.0000
 20
0.0000
 30
0.0000
 40
0.2032
 41
0.2032
 70
0
  0
VERTEX
  8
51
 10
78.0770
 20
156.6164
 30
0.0000
  0
VERTEX
  8
51
 10
78.0770
 20
150.6164
 30
0.0000
  0
SEQEND
  8
0
  0
POLYLINE
  8
51
 66
1
 10
0.0000
 20
0.0000
 30
0.0000
 40
0.1016
 41
0.1016
 70
0
  0
VERTEX
  8
51
 10
78.0262
 20
150.6164
 30
0.0000
 42
1.0000
  0
VERTEX
  8
51
 10
78.1278
 20
150.6164
 30
0.0000
  0
SEQEND
  8
0
  0
POLYLINE
  8
51
 66
1
 10
0.0000
 20
0.0000
 30
0.0000
 40
0.1016
 41
0.1016
 70
0
  0
VERTEX
  8
51
 10
78.1278
 20
156.6164
 30
0.0000
 42
1.0000
  0
VERTEX
  8
51
 10
78.0262
 20
156.6164
 30
0.0000
  0
SEQEND
  8
0
  0
POLYLINE
  8
51
 66
1
 10
0.0000
 20
0.0000
 30
0.0000
 40
0.2032
 41
0.2032
 70
0
  0
VERTEX
  8
51
 10
78.0770
 20
150.6164
 30
0.0000
  0
VERTEX
  8
51
 10
74.5770
 20
150.6164
 30
0.0000
  0
SEQEND
  8
0
  0
POLYLINE
  8
51
 66
1
 10
0.0000
 20
0.0000
 30
0.0000
 40
0.1016
 41
0.1016
 70
0
  0
VERTEX
  8
51
 10
74.5770
 20
150.6672
 30
0.0000
 42
1.0000
  0
VERTEX
  8
51
 10
74.5770
 20
150.5656
 30
0.0000
  0
SEQEND
  8
0
  0
POLYLINE
  8
51
 66
1
 10
0.0000
 20
0.0000
 30
0.0000
 40
0.1016
 41
0.1016
 70
0
  0
VERTEX
  8
51
 10
78.0770
 20
150.5656
 30
0.0000
 42
1.0000
  0
VERTEX
  8
51
 10
78.0770
 20
150.6672
 30
0.0000
  0
SEQEND
  8
0
  0
POLYLINE
  8
51
 66
1
 10
0.0000
 20
0.0000
 30
0.0000
 40
0.2032
 41
0.2032
 70
0
  0
VERTEX
  8
51
 10
75.5770
 20
152.1164
 30
0.0000
  0
VERTEX
  8
51
 10
75.5770
 20
155.1164
 30
0.0000
  0
SEQEND
  8
0
  0
POLYLINE
  8
51
 66
1
 10
0.0000
 20
0.0000
 30
0.0000
 40
0.1016
 41
0.1016
 70
0
  0
VERTEX
  8
51
 10
75.6278
 20
155.1164
 30
0.0000
 42
1.0000
  0
VERTEX
  8
51
 10
75.5262
 20
155.1164
 30
0.0000
  0
SEQEND
  8
0
  0
POLYLINE
  8
51
 66
1
 10
0.0000
 20
0.0000
 30
0.0000
 40
0.1016
 41
0.1016
 70
0
  0
VERTEX
  8
51
 10
75.5262
 20
152.1164
 30
0.0000
 42
1.0000
  0
VERTEX
  8
51
 10
75.6278
 20
152.1164
 30
0.0000
  0
SEQEND
  8
0
  0
POLYLINE
  8
51
 66
1
 10
0.0000
 20
0.0000
 30
0.0000
 40
0.2032
 41
0.2032
 70
0
  0
VERTEX
  8
51
 10
75.5770
 20
155.1164
 30
0.0000
  0
VERTEX
  8
51
 10
77.0770
 20
155.1164
 30
0.0000
  0
SEQEND
  8
0
  0
POLYLINE
  8
51
 66
1
 10
0.0000
 20
0.0000
 30
0.0000
 40
0.1016
 41
0.1016
 70
0
  0
VERTEX
  8
51
 10
77.0770
 20
155.0656
 30
0.0000
 42
1.0000
  0
VERTEX
  8
51
 10
77.0770
 20
155.1672
 30
0.0000
  0
SEQEND
  8
0
  0
POLYLINE
  8
51
 66
1
 10
0.0000
 20
0.0000
 30
0.0000
 40
0.1016
 41
0.1016
 70
0
  0
VERTEX
  8
51
 10
75.5770
 20
155.1672
 30
0.0000
 42
1.0000
  0
VERTEX
  8
51
 10
75.5770
 20
155.0656
 30
0.0000
  0
SEQEND
  8
0
  0
POLYLINE
  8
51
 66
1
 10
0.0000
 20
0.0000
 30
0.0000
 40
0.2032
 41
0.2032
 70
0
  0
VERTEX
  8
51
 10
77.0770
 20
155.1164
 30
0.0000
  0
VERTEX
  8
51
 10
77.0770
 20
152.1164
 30
0.0000
  0
SEQEND
  8
0
  0
POLYLINE
  8
51
 66
1
 10
0.0000
 20
0.0000
 30
0.0000
 40
0.1016
 41
0.1016
 70
0
  0
VERTEX
  8
51
 10
77.0262
 20
152.1164
 30
0.0000
 42
1.0000
  0
VERTEX
  8
51
 10
77.1278
 20
152.1164
 30
0.0000
  0
SEQEND
  8
0
  0
POLYLINE
  8
51
 66
1
 10
0.0000
 20
0.0000
 30
0.0000
 40
0.1016
 41
0.1016
 70
0
  0
VERTEX
  8
51
 10
77.1278
 20
155.1164
 30
0.0000
 42
1.0000
  0
VERTEX
  8
51
 10
77.0262
 20
155.1164
 30
0.0000
  0
SEQEND
  8
0
  0
POLYLINE
  8
51
 66
1
 10
0.0000
 20
0.0000
 30
0.0000
 40
0.2032
 41
0.2032
 70
0
  0
VERTEX
  8
51
 10
77.0770
 20
152.1164
 30
0.0000
  0
VERTEX
  8
51
 10
75.5770
 20
152.1164
 30
0.0000
  0
SEQEND
  8
0
  0
POLYLINE
  8
51
 66
1
 10
0.0000
 20
0.0000
 30
0.0000
 40
0.1016
 41
0.1016
 70
0
  0
VERTEX
  8
51
 10
75.5770
 20
152.1672
 30
0.0000
 42
1.0000
  0
VERTEX
  8
51
 10
75.5770
 20
152.0656
 30
0.0000
  0
SEQEND
  8
0
  0
POLYLINE
  8
51
 66
1
 10
0.0000
 20
0.0000
 30
0.0000
 40
0.1016
 41
0.1016
 70
0
  0
VERTEX
  8
51
 10
77.0770
 20
152.0656
 30
0.0000
 42
1.0000
  0
VERTEX
  8
51
 10
77.0770
 20
152.1672
 30
0.0000
  0
SEQEND
  8
0
  0
POINT
  8
23
 10
76.3270
 20
121.0932
 30
0.0000
  0
POLYLINE
  8
51
 66
1
 10
0.0000
 20
0.0000
 30
0.0000
 40
0.2032
 41
0.2032
 70
0
  0
VERTEX
  8
51
 10
74.5770
 20
118.0932
 30
0.0000
  0
VERTEX
  8
51
 10
74.5770
 20
124.0932
 30
0.0000
  0
SEQEND
  8
0
  0
POLYLINE
  8
51
 66
1
 10
0.0000
 20
0.0000
 30
0.0000
 40
0.1016
 41
0.1016
 70
0
  0
VERTEX
  8
51
 10
74.6278
 20
124.0932
 30
0.0000
 42
1.0000
  0
VERTEX
  8
51
 10
74.5262
 20
124.0932
 30
0.0000
  0
SEQEND
  8
0
  0
POLYLINE
  8
51
 66
1
 10
0.0000
 20
0.0000
 30
0.0000
 40
0.1016
 41
0.1016
 70
0
  0
VERTEX
  8
51
 10
74.5262
 20
118.0932
 30
0.0000
 42
1.0000
  0
VERTEX
  8
51
 10
74.6278
 20
118.0932
 30
0.0000
  0
SEQEND
  8
0
  0
POLYLINE
  8
51
 66
1
 10
0.0000
 20
0.0000
 30
0.0000
 40
0.2032
 41
0.2032
 70
0
  0
VERTEX
  8
51
 10
74.5770
 20
124.0932
 30
0.0000
  0
VERTEX
  8
51
 10
78.0770
 20
124.0932
 30
0.0000
  0
SEQEND
  8
0
  0
POLYLINE
  8
51
 66
1
 10
0.0000
 20
0.0000
 30
0.0000
 40
0.1016
 41
0.1016
 70
0
  0
VERTEX
  8
51
 10
78.0770
 20
124.0424
 30
0.0000
 42
1.0000
  0
VERTEX
  8
51
 10
78.0770
 20
124.1440
 30
0.0000
  0
SEQEND
  8
0
  0
POLYLINE
  8
51
 66
1
 10
0.0000
 20
0.0000
 30
0.0000
 40
0.1016
 41
0.1016
 70
0
  0
VERTEX
  8
51
 10
74.5770
 20
124.1440
 30
0.0000
 42
1.0000
  0
VERTEX
  8
51
 10
74.5770
 20
124.0424
 30
0.0000
  0
SEQEND
  8
0
  0
POLYLINE
  8
51
 66
1
 10
0.0000
 20
0.0000
 30
0.0000
 40
0.2032
 41
0.2032
 70
0
  0
VERTEX
  8
51
 10
78.0770
 20
124.0932
 30
0.0000
  0
VERTEX
  8
51
 10
78.0770
 20
118.0932
 30
0.0000
  0
SEQEND
  8
0
  0
POLYLINE
  8
51
 66
1
 10
0.0000
 20
0.0000
 30
0.0000
 40
0.1016
 41
0.1016
 70
0
  0
VERTEX
  8
51
 10
78.0262
 20
118.0932
 30
0.0000
 42
1.0000
  0
VERTEX
  8
51
 10
78.1278
 20
118.0932
 30
0.0000
  0
SEQEND
  8
0
  0
POLYLINE
  8
51
 66
1
 10
0.0000
 20
0.0000
 30
0.0000
 40
0.1016
 41
0.1016
 70
0
  0
VERTEX
  8
51
 10
78.1278
 20
124.0932
 30
0.0000
 42
1.0000
  0
VERTEX
  8
51
 10
78.0262
 20
124.0932
 30
0.0000
  0
SEQEND
  8
0
  0
POLYLINE
  8
51
 66
1
 10
0.0000
 20
0.0000
 30
0.0000
 40
0.2032
 41
0.2032
 70
0
  0
VERTEX
  8
51
 10
78.0770
 20
118.0932
 30
0.0000
  0
VERTEX
  8
51
 10
74.5770
 20
118.0932
 30
0.0000
  0
SEQEND
  8
0
  0
POLYLINE
  8
51
 66
1
 10
0.0000
 20
0.0000
 30
0.0000
 40
0.1016
 41
0.1016
 70
0
  0
VERTEX
  8
51
 10
74.5770
 20
118.1440
 30
0.0000
 42
1.0000
  0
VERTEX
  8
51
 10
74.5770
 20
118.0424
 30
0.0000
  0
SEQEND
  8
0
  0
POLYLINE
  8
51
 66
1
 10
0.0000
 20
0.0000
 30
0.0000
 40
0.1016
 41
0.1016
 70
0
  0
VERTEX
  8
51
 10
78.0770
 20
118.0424
 30
0.0000
 42
1.0000
  0
VERTEX
  8
51
 10
78.0770
 20
118.1440
 30
0.0000
  0
SEQEND
  8
0
  0
POLYLINE
  8
51
 66
1
 10
0.0000
 20
0.0000
 30
0.0000
 40
0.2032
 41
0.2032
 70
0
  0
VERTEX
  8
51
 10
75.5770
 20
119.5932
 30
0.0000
  0
VERTEX
  8
51
 10
75.5770
 20
122.5932
 30
0.0000
  0
SEQEND
  8
0
  0
POLYLINE
  8
51
 66
1
 10
0.0000
 20
0.0000
 30
0.0000
 40
0.1016
 41
0.1016
 70
0
  0
VERTEX
  8
51
 10
75.6278
 20
122.5932
 30
0.0000
 42
1.0000
  0
VERTEX
  8
51
 10
75.5262
 20
122.5932
 30
0.0000
  0
SEQEND
  8
0
  0
POLYLINE
  8
51
 66
1
 10
0.0000
 20
0.0000
 30
0.0000
 40
0.1016
 41
0.1016
 70
0
  0
VERTEX
  8
51
 10
75.5262
 20
119.5932
 30
0.0000
 42
1.0000
  0
VERTEX
  8
51
 10
75.6278
 20
119.5932
 30
0.0000
  0
SEQEND
  8
0
  0
POLYLINE
  8
51
 66
1
 10
0.0000
 20
0.0000
 30
0.0000
 40
0.2032
 41
0.2032
 70
0
  0
VERTEX
  8
51
 10
75.5770
 20
122.5932
 30
0.0000
  0
VERTEX
  8
51
 10
77.0770
 20
122.5932
 30
0.0000
  0
SEQEND
  8
0
  0
POLYLINE
  8
51
 66
1
 10
0.0000
 20
0.0000
 30
0.0000
 40
0.1016
 41
0.1016
 70
0
  0
VERTEX
  8
51
 10
77.0770
 20
122.5424
 30
0.0000
 42
1.0000
  0
VERTEX
  8
51
 10
77.0770
 20
122.6440
 30
0.0000
  0
SEQEND
  8
0
  0
POLYLINE
  8
51
 66
1
 10
0.0000
 20
0.0000
 30
0.0000
 40
0.1016
 41
0.1016
 70
0
  0
VERTEX
  8
51
 10
75.5770
 20
122.6440
 30
0.0000
 42
1.0000
  0
VERTEX
  8
51
 10
75.5770
 20
122.5424
 30
0.0000
  0
SEQEND
  8
0
  0
POLYLINE
  8
51
 66
1
 10
0.0000
 20
0.0000
 30
0.0000
 40
0.2032
 41
0.2032
 70
0
  0
VERTEX
  8
51
 10
77.0770
 20
122.5932
 30
0.0000
  0
VERTEX
  8
51
 10
77.0770
 20
119.5932
 30
0.0000
  0
SEQEND
  8
0
  0
POLYLINE
  8
51
 66
1
 10
0.0000
 20
0.0000
 30
0.0000
 40
0.1016
 41
0.1016
 70
0
  0
VERTEX
  8
51
 10
77.0262
 20
119.5932
 30
0.0000
 42
1.0000
  0
VERTEX
  8
51
 10
77.1278
 20
119.5932
 30
0.0000
  0
SEQEND
  8
0
  0
POLYLINE
  8
51
 66
1
 10
0.0000
 20
0.0000
 30
0.0000
 40
0.1016
 41
0.1016
 70
0
  0
VERTEX
  8
51
 10
77.1278
 20
122.5932
 30
0.0000
 42
1.0000
  0
VERTEX
  8
51
 10
77.0262
 20
122.5932
 30
0.0000
  0
SEQEND
  8
0
  0
POLYLINE
  8
51
 66
1
 10
0.0000
 20
0.0000
 30
0.0000
 40
0.2032
 41
0.2032
 70
0
  0
VERTEX
  8
51
 10
77.0770
 20
119.5932
 30
0.0000
  0
VERTEX
  8
51
 10
75.5770
 20
119.5932
 30
0.0000
  0
SEQEND
  8
0
  0
POLYLINE
  8
51
 66
1
 10
0.0000
 20
0.0000
 30
0.0000
 40
0.1016
 41
0.1016
 70
0
  0
VERTEX
  8
51
 10
75.5770
 20
119.6440
 30
0.0000
 42
1.0000
  0
VERTEX
  8
51
 10
75.5770
 20
119.5424
 30
0.0000
  0
SEQEND
  8
0
  0
POLYLINE
  8
51
 66
1
 10
0.0000
 20
0.0000
 30
0.0000
 40
0.1016
 41
0.1016
 70
0
  0
VERTEX
  8
51
 10
77.0770
 20
119.5424
 30
0.0000
 42
1.0000
  0
VERTEX
  8
51
 10
77.0770
 20
119.6440
 30
0.0000
  0
SEQEND
  8
0
  0
POINT
  8
23
 10
76.9000
 20
88.5700
 30
0.0000
  0
POLYLINE
  8
51
 66
1
 10
0.0000
 20
0.0000
 30
0.0000
 40
0.2032
 41
0.2032
 70
0
  0
VERTEX
  8
51
 10
75.1500
 20
85.5700
 30
0.0000
  0
VERTEX
  8
51
 10
75.1500
 20
91.5700
 30
0.0000
  0
SEQEND
  8
0
  0
POLYLINE
  8
51
 66
1
 10
0.0000
 20
0.0000
 30
0.0000
 40
0.1016
 41
0.1016
 70
0
  0
VERTEX
  8
51
 10
75.2008
 20
91.5700
 30
0.0000
 42
1.0000
  0
VERTEX
  8
51
 10
75.0992
 20
91.5700
 30
0.0000
  0
SEQEND
  8
0
  0
POLYLINE
  8
51
 66
1
 10
0.0000
 20
0.0000
 30
0.0000
 40
0.1016
 41
0.1016
 70
0
  0
VERTEX
  8
51
 10
75.0992
 20
85.5700
 30
0.0000
 42
1.0000
  0
VERTEX
  8
51
 10
75.2008
 20
85.5700
 30
0.0000
  0
SEQEND
  8
0
  0
POLYLINE
  8
51
 66
1
 10
0.0000
 20
0.0000
 30
0.0000
 40
0.2032
 41
0.2032
 70
0
  0
VERTEX
  8
51
 10
75.1500
 20
91.5700
 30
0.0000
  0
VERTEX
  8
51
 10
78.6500
 20
91.5700
 30
0.0000
  0
SEQEND
  8
0
  0
POLYLINE
  8
51
 66
1
 10
0.0000
 20
0.0000
 30
0.0000
 40
0.1016
 41
0.1016
 70
0
  0
VERTEX
  8
51
 10
78.6500
 20
91.5192
 30
0.0000
 42
1.0000
  0
VERTEX
  8
51
 10
78.6500
 20
91.6208
 30
0.0000
  0
SEQEND
  8
0
  0
POLYLINE
  8
51
 66
1
 10
0.0000
 20
0.0000
 30
0.0000
 40
0.1016
 41
0.1016
 70
0
  0
VERTEX
  8
51
 10
75.1500
 20
91.6208
 30
0.0000
 42
1.0000
  0
VERTEX
  8
51
 10
75.1500
 20
91.5192
 30
0.0000
  0
SEQEND
  8
0
  0
POLYLINE
  8
51
 66
1
 10
0.0000
 20
0.0000
 30
0.0000
 40
0.2032
 41
0.2032
 70
0
  0
VERTEX
  8
51
 10
78.6500
 20
91.5700
 30
0.0000
  0
VERTEX
  8
51
 10
78.6500
 20
85.5700
 30
0.0000
  0
SEQEND
  8
0
  0
POLYLINE
  8
51
 66
1
 10
0.0000
 20
0.0000
 30
0.0000
 40
0.1016
 41
0.1016
 70
0
  0
VERTEX
  8
51
 10
78.5992
 20
85.5700
 30
0.0000
 42
1.0000
  0
VERTEX
  8
51
 10
78.7008
 20
85.5700
 30
0.0000
  0
SEQEND
  8
0
  0
POLYLINE
  8
51
 66
1
 10
0.0000
 20
0.0000
 30
0.0000
 40
0.1016
 41
0.1016
 70
0
  0
VERTEX
  8
51
 10
78.7008
 20
91.5700
 30
0.0000
 42
1.0000
  0
VERTEX
  8
51
 10
78.5992
 20
91.5700
 30
0.0000
  0
SEQEND
  8
0
  0
POLYLINE
  8
51
 66
1
 10
0.0000
 20
0.0000
 30
0.0000
 40
0.2032
 41
0.2032
 70
0
  0
VERTEX
  8
51
 10
78.6500
 20
85.5700
 30
0.0000
  0
VERTEX
  8
51
 10
75.1500
 20
85.5700
 30
0.0000
  0
SEQEND
  8
0
  0
POLYLINE
  8
51
 66
1
 10
0.0000
 20
0.0000
 30
0.0000
 40
0.1016
 41
0.1016
 70
0
  0
VERTEX
  8
51
 10
75.1500
 20
85.6208
 30
0.0000
 42
1.0000
  0
VERTEX
  8
51
 10
75.1500
 20
85.5192
 30
0.0000
  0
SEQEND
  8
0
  0
POLYLINE
  8
51
 66
1
 10
0.0000
 20
0.0000
 30
0.0000
 40
0.1016
 41
0.1016
 70
0
  0
VERTEX
  8
51
 10
78.6500
 20
85.5192
 30
0.0000
 42
1.0000
  0
VERTEX
  8
51
 10
78.6500
 20
85.6208
 30
0.0000
  0
SEQEND
  8
0
  0
POLYLINE
  8
51
 66
1
 10
0.0000
 20
0.0000
 30
0.0000
 40
0.2032
 41
0.2032
 70
0
  0
VERTEX
  8
51
 10
76.1500
 20
87.0700
 30
0.0000
  0
VERTEX
  8
51
 10
76.1500
 20
90.0700
 30
0.0000
  0
SEQEND
  8
0
  0
POLYLINE
  8
51
 66
1
 10
0.0000
 20
0.0000
 30
0.0000
 40
0.1016
 41
0.1016
 70
0
  0
VERTEX
  8
51
 10
76.2008
 20
90.0700
 30
0.0000
 42
1.0000
  0
VERTEX
  8
51
 10
76.0992
 20
90.0700
 30
0.0000
  0
SEQEND
  8
0
  0
POLYLINE
  8
51
 66
1
 10
0.0000
 20
0.0000
 30
0.0000
 40
0.1016
 41
0.1016
 70
0
  0
VERTEX
  8
51
 10
76.0992
 20
87.0700
 30
0.0000
 42
1.0000
  0
VERTEX
  8
51
 10
76.2008
 20
87.0700
 30
0.0000
  0
SEQEND
  8
0
  0
POLYLINE
  8
51
 66
1
 10
0.0000
 20
0.0000
 30
0.0000
 40
0.2032
 41
0.2032
 70
0
  0
VERTEX
  8
51
 10
76.1500
 20
90.0700
 30
0.0000
  0
VERTEX
  8
51
 10
77.6500
 20
90.0700
 30
0.0000
  0
SEQEND
  8
0
  0
POLYLINE
  8
51
 66
1
 10
0.0000
 20
0.0000
 30
0.0000
 40
0.1016
 41
0.1016
 70
0
  0
VERTEX
  8
51
 10
77.6500
 20
90.0192
 30
0.0000
 42
1.0000
  0
VERTEX
  8
51
 10
77.6500
 20
90.1208
 30
0.0000
  0
SEQEND
  8
0
  0
POLYLINE
  8
51
 66
1
 10
0.0000
 20
0.0000
 30
0.0000
 40
0.1016
 41
0.1016
 70
0
  0
VERTEX
  8
51
 10
76.1500
 20
90.1208
 30
0.0000
 42
1.0000
  0
VERTEX
  8
51
 10
76.1500
 20
90.0192
 30
0.0000
  0
SEQEND
  8
0
  0
POLYLINE
  8
51
 66
1
 10
0.0000
 20
0.0000
 30
0.0000
 40
0.2032
 41
0.2032
 70
0
  0
VERTEX
  8
51
 10
77.6500
 20
90.0700
 30
0.0000
  0
VERTEX
  8
51
 10
77.6500
 20
87.0700
 30
0.0000
  0
SEQEND
  8
0
  0
POLYLINE
  8
51
 66
1
 10
0.0000
 20
0.0000
 30
0.0000
 40
0.1016
 41
0.1016
 70
0
  0
VERTEX
  8
51
 10
77.5992
 20
87.0700
 30
0.0000
 42
1.0000
  0
VERTEX
  8
51
 10
77.7008
 20
87.0700
 30
0.0000
  0
SEQEND
  8
0
  0
POLYLINE
  8
51
 66
1
 10
0.0000
 20
0.0000
 30
0.0000
 40
0.1016
 41
0.1016
 70
0
  0
VERTEX
  8
51
 10
77.7008
 20
90.0700
 30
0.0000
 42
1.0000
  0
VERTEX
  8
51
 10
77.5992
 20
90.0700
 30
0.0000
  0
SEQEND
  8
0
  0
POLYLINE
  8
51
 66
1
 10
0.0000
 20
0.0000
 30
0.0000
 40
0.2032
 41
0.2032
 70
0
  0
VERTEX
  8
51
 10
77.6500
 20
87.0700
 30
0.0000
  0
VERTEX
  8
51
 10
76.1500
 20
87.0700
 30
0.0000
  0
SEQEND
  8
0
  0
POLYLINE
  8
51
 66
1
 10
0.0000
 20
0.0000
 30
0.0000
 40
0.1016
 41
0.1016
 70
0
  0
VERTEX
  8
51
 10
76.1500
 20
87.1208
 30
0.0000
 42
1.0000
  0
VERTEX
  8
51
 10
76.1500
 20
87.0192
 30
0.0000
  0
SEQEND
  8
0
  0
POLYLINE
  8
51
 66
1
 10
0.0000
 20
0.0000
 30
0.0000
 40
0.1016
 41
0.1016
 70
0
  0
VERTEX
  8
51
 10
77.6500
 20
87.0192
 30
0.0000
 42
1.0000
  0
VERTEX
  8
51
 10
77.6500
 20
87.1208
 30
0.0000
  0
SEQEND
  8
0
  0
POINT
  8
23
 10
73.1520
 20
259.0800
 30
0.0000
  0
POLYLINE
  8
51
 66
1
 10
0.0000
 20
0.0000
 30
0.0000
 40
0.1016
 41
0.1016
 70
0
  0
VERTEX
  8
51
 10
70.3353
 20
258.3545
 30
0.0000
  0
VERTEX
  8
51
 10
70.5893
 20
258.5577
 30
0.0000
  0
SEQEND
  8
0
  0
POLYLINE
  8
51
 66
1
 10
0.0000
 20
0.0000
 30
0.0000
 40
0.0508
 41
0.0508
 70
0
  0
VERTEX
  8
51
 10
70.6052
 20
258.5379
 30
0.0000
 42
1.0000
  0
VERTEX
  8
51
 10
70.5734
 20
258.5775
 30
0.0000
  0
SEQEND
  8
0
  0
POLYLINE
  8
51
 66
1
 10
0.0000
 20
0.0000
 30
0.0000
 40
0.0508
 41
0.0508
 70
0
  0
VERTEX
  8
51
 10
70.3194
 20
258.3743
 30
0.0000
 42
1.0000
  0
VERTEX
  8
51
 10
70.3512
 20
258.3347
 30
0.0000
  0
SEQEND
  8
0
  0
POLYLINE
  8
51
 66
1
 10
0.0000
 20
0.0000
 30
0.0000
 40
0.1016
 41
0.1016
 70
0
  0
VERTEX
  8
51
 10
70.5893
 20
258.5577
 30
0.0000
  0
VERTEX
  8
51
 10
70.5893
 20
257.6433
 30
0.0000
  0
SEQEND
  8
0
  0
POLYLINE
  8
51
 66
1
 10
0.0000
 20
0.0000
 30
0.0000
 40
0.0508
 41
0.0508
 70
0
  0
VERTEX
  8
51
 10
70.5639
 20
257.6433
 30
0.0000
 42
1.0000
  0
VERTEX
  8
51
 10
70.6147
 20
257.6433
 30
0.0000
  0
SEQEND
  8
0
  0
POLYLINE
  8
51
 66
1
 10
0.0000
 20
0.0000
 30
0.0000
 40
0.0508
 41
0.0508
 70
0
  0
VERTEX
  8
51
 10
70.6147
 20
258.5577
 30
0.0000
 42
1.0000
  0
VERTEX
  8
51
 10
70.5639
 20
258.5577
 30
0.0000
  0
SEQEND
  8
0
  0
POLYLINE
  8
51
 66
1
 10
0.0000
 20
0.0000
 30
0.0000
 40
0.1016
 41
0.1016
 70
0
  0
VERTEX
  8
51
 10
70.3353
 20
257.6433
 30
0.0000
  0
VERTEX
  8
51
 10
70.8433
 20
257.6433
 30
0.0000
  0
SEQEND
  8
0
  0
POLYLINE
  8
51
 66
1
 10
0.0000
 20
0.0000
 30
0.0000
 40
0.0508
 41
0.0508
 70
0
  0
VERTEX
  8
51
 10
70.8433
 20
257.6179
 30
0.0000
 42
1.0000
  0
VERTEX
  8
51
 10
70.8433
 20
257.6687
 30
0.0000
  0
SEQEND
  8
0
  0
POLYLINE
  8
51
 66
1
 10
0.0000
 20
0.0000
 30
0.0000
 40
0.0508
 41
0.0508
 70
0
  0
VERTEX
  8
51
 10
70.3353
 20
257.6687
 30
0.0000
 42
1.0000
  0
VERTEX
  8
51
 10
70.3353
 20
257.6179
 30
0.0000
  0
SEQEND
  8
0
  0
POINT
  8
23
 10
80.7720
 20
259.0800
 30
0.0000
  0
POLYLINE
  8
51
 66
1
 10
0.0000
 20
0.0000
 30
0.0000
 40
0.1016
 41
0.1016
 70
0
  0
VERTEX
  8
51
 10
77.9553
 20
258.3545
 30
0.0000
  0
VERTEX
  8
51
 10
78.2093
 20
258.5577
 30
0.0000
  0
SEQEND
  8
0
  0
POLYLINE
  8
51
 66
1
 10
0.0000
 20
0.0000
 30
0.0000
 40
0.0508
 41
0.0508
 70
0
  0
VERTEX
  8
51
 10
78.2252
 20
258.5379
 30
0.0000
 42
1.0000
  0
VERTEX
  8
51
 10
78.1934
 20
258.5775
 30
0.0000
  0
SEQEND
  8
0
  0
POLYLINE
  8
51
 66
1
 10
0.0000
 20
0.0000
 30
0.0000
 40
0.0508
 41
0.0508
 70
0
  0
VERTEX
  8
51
 10
77.9394
 20
258.3743
 30
0.0000
 42
1.0000
  0
VERTEX
  8
51
 10
77.9712
 20
258.3347
 30
0.0000
  0
SEQEND
  8
0
  0
POLYLINE
  8
51
 66
1
 10
0.0000
 20
0.0000
 30
0.0000
 40
0.1016
 41
0.1016
 70
0
  0
VERTEX
  8
51
 10
78.2093
 20
258.5577
 30
0.0000
  0
VERTEX
  8
51
 10
78.2093
 20
257.6433
 30
0.0000
  0
SEQEND
  8
0
  0
POLYLINE
  8
51
 66
1
 10
0.0000
 20
0.0000
 30
0.0000
 40
0.0508
 41
0.0508
 70
0
  0
VERTEX
  8
51
 10
78.1839
 20
257.6433
 30
0.0000
 42
1.0000
  0
VERTEX
  8
51
 10
78.2347
 20
257.6433
 30
0.0000
  0
SEQEND
  8
0
  0
POLYLINE
  8
51
 66
1
 10
0.0000
 20
0.0000
 30
0.0000
 40
0.0508
 41
0.0508
 70
0
  0
VERTEX
  8
51
 10
78.2347
 20
258.5577
 30
0.0000
 42
1.0000
  0
VERTEX
  8
51
 10
78.1839
 20
258.5577
 30
0.0000
  0
SEQEND
  8
0
  0
POLYLINE
  8
51
 66
1
 10
0.0000
 20
0.0000
 30
0.0000
 40
0.1016
 41
0.1016
 70
0
  0
VERTEX
  8
51
 10
77.9553
 20
257.6433
 30
0.0000
  0
VERTEX
  8
51
 10
78.4633
 20
257.6433
 30
0.0000
  0
SEQEND
  8
0
  0
POLYLINE
  8
51
 66
1
 10
0.0000
 20
0.0000
 30
0.0000
 40
0.0508
 41
0.0508
 70
0
  0
VERTEX
  8
51
 10
78.4633
 20
257.6179
 30
0.0000
 42
1.0000
  0
VERTEX
  8
51
 10
78.4633
 20
257.6687
 30
0.0000
  0
SEQEND
  8
0
  0
POLYLINE
  8
51
 66
1
 10
0.0000
 20
0.0000
 30
0.0000
 40
0.0508
 41
0.0508
 70
0
  0
VERTEX
  8
51
 10
77.9553
 20
257.6687
 30
0.0000
 42
1.0000
  0
VERTEX
  8
51
 10
77.9553
 20
257.6179
 30
0.0000
  0
SEQEND
  8
0
  0
ENDSEC
  0
EOF
