M48
;GenerationSoftware,Autodesk,EAGLE,9.6.2*%
;CreationDate,2022-02-22T04:16:00Z*%
FMAT,2
ICI,OFF
METRIC,TZ,000.000
T4C0.813
T3C1.016
T2C1.300
T1C3.000
%
G90
M71
T1
X69850Y26670
X83820Y26670
X76835Y259080
T2
X72950Y252730
X79450Y252730
X72950Y164338
X79450Y164338
X72950Y208534
X79450Y208534
X72950Y230632
X79450Y230632
X72950Y186436
X79450Y186436
X72950Y142240
X79450Y142240
X72950Y120142
X79450Y120142
X72950Y98044
X79450Y98044
X72950Y75946
X79450Y75946
X72950Y53848
X79450Y53848
X72950Y31750
X79450Y31750
T3
X83820Y259080
X81280Y259080
X72390Y259080
X69850Y259080
T4
X77470Y181094
X74930Y181094
X80010Y169222
X80010Y176842
X77470Y158996
X74930Y158996
X80010Y147124
X80010Y154744
X77470Y247388
X74930Y247388
X77470Y136898
X74930Y136898
X80010Y125026
X80010Y132646
X80010Y235516
X80010Y243136
X77470Y114800
X74930Y114800
X80010Y102928
X80010Y110548
X77470Y225290
X74930Y225290
X77470Y92702
X74930Y92702
X80010Y80830
X80010Y88450
X80010Y213418
X80010Y221038
X77470Y70604
X74930Y70604
X80010Y58732
X80010Y66352
X77470Y203192
X74930Y203192
X77470Y48506
X74930Y48506
X73787Y58859
X73787Y66479
X80010Y191320
X80010Y198940
X77470Y37858
X74930Y37858
X81280Y36526
X81280Y44146
M30