G04 EAGLE Gerber RS-274X export*
G75*
%MOMM*%
%FSLAX34Y34*%
%LPD*%
%IN*%
%IPPOS*%
%AMOC8*
5,1,8,0,0,1.08239X$1,22.5*%
G01*
%ADD10C,0.254000*%


D10*
X3100000Y120000D02*
X4030000Y120000D01*
X4030000Y440000D01*
X3100000Y440000D01*
X3100000Y120000D01*
X3116200Y293400D02*
X3126200Y293400D01*
X3126200Y321400D01*
X3116200Y321400D01*
X3116200Y293400D01*
X3177200Y290900D02*
X3187200Y290900D01*
X3187200Y323900D01*
X3177200Y323900D01*
X3177200Y290900D01*
X3137200Y254400D02*
X3165200Y254400D01*
X3165200Y264400D01*
X3137200Y264400D01*
X3137200Y254400D01*
X3145000Y149464D02*
X3144924Y148396D01*
X3144771Y147335D01*
X3144543Y146288D01*
X3144241Y145260D01*
X3143867Y144256D01*
X3143422Y143281D01*
X3142908Y142341D01*
X3142329Y141440D01*
X3141687Y140582D01*
X3140985Y139772D01*
X3140228Y139015D01*
X3139418Y138313D01*
X3138560Y137671D01*
X3137659Y137092D01*
X3136719Y136578D01*
X3135744Y136133D01*
X3134740Y135759D01*
X3133712Y135457D01*
X3132665Y135229D01*
X3131604Y135076D01*
X3130536Y135000D01*
X3129464Y135000D01*
X3128396Y135076D01*
X3127335Y135229D01*
X3126288Y135457D01*
X3125260Y135759D01*
X3124256Y136133D01*
X3123281Y136578D01*
X3122341Y137092D01*
X3121440Y137671D01*
X3120582Y138313D01*
X3119772Y139015D01*
X3119015Y139772D01*
X3118313Y140582D01*
X3117671Y141440D01*
X3117092Y142341D01*
X3116578Y143281D01*
X3116133Y144256D01*
X3115759Y145260D01*
X3115457Y146288D01*
X3115229Y147335D01*
X3115076Y148396D01*
X3115000Y149464D01*
X3115000Y150536D01*
X3115076Y151604D01*
X3115229Y152665D01*
X3115457Y153712D01*
X3115759Y154740D01*
X3116133Y155744D01*
X3116578Y156719D01*
X3117092Y157659D01*
X3117671Y158560D01*
X3118313Y159418D01*
X3119015Y160228D01*
X3119772Y160985D01*
X3120582Y161687D01*
X3121440Y162329D01*
X3122341Y162908D01*
X3123281Y163422D01*
X3124256Y163867D01*
X3125260Y164241D01*
X3126288Y164543D01*
X3127335Y164771D01*
X3128396Y164924D01*
X3129464Y165000D01*
X3130536Y165000D01*
X3131604Y164924D01*
X3132665Y164771D01*
X3133712Y164543D01*
X3134740Y164241D01*
X3135744Y163867D01*
X3136719Y163422D01*
X3137659Y162908D01*
X3138560Y162329D01*
X3139418Y161687D01*
X3140228Y160985D01*
X3140985Y160228D01*
X3141687Y159418D01*
X3142329Y158560D01*
X3142908Y157659D01*
X3143422Y156719D01*
X3143867Y155744D01*
X3144241Y154740D01*
X3144543Y153712D01*
X3144771Y152665D01*
X3144924Y151604D01*
X3145000Y150536D01*
X3145000Y149464D01*
X3895000Y159464D02*
X3894924Y158396D01*
X3894771Y157335D01*
X3894543Y156288D01*
X3894241Y155260D01*
X3893867Y154256D01*
X3893422Y153281D01*
X3892908Y152341D01*
X3892329Y151440D01*
X3891687Y150582D01*
X3890985Y149772D01*
X3890228Y149015D01*
X3889418Y148313D01*
X3888560Y147671D01*
X3887659Y147092D01*
X3886719Y146578D01*
X3885744Y146133D01*
X3884740Y145759D01*
X3883712Y145457D01*
X3882665Y145229D01*
X3881604Y145076D01*
X3880536Y145000D01*
X3879464Y145000D01*
X3878396Y145076D01*
X3877335Y145229D01*
X3876288Y145457D01*
X3875260Y145759D01*
X3874256Y146133D01*
X3873281Y146578D01*
X3872341Y147092D01*
X3871440Y147671D01*
X3870582Y148313D01*
X3869772Y149015D01*
X3869015Y149772D01*
X3868313Y150582D01*
X3867671Y151440D01*
X3867092Y152341D01*
X3866578Y153281D01*
X3866133Y154256D01*
X3865759Y155260D01*
X3865457Y156288D01*
X3865229Y157335D01*
X3865076Y158396D01*
X3865000Y159464D01*
X3865000Y160536D01*
X3865076Y161604D01*
X3865229Y162665D01*
X3865457Y163712D01*
X3865759Y164740D01*
X3866133Y165744D01*
X3866578Y166719D01*
X3867092Y167659D01*
X3867671Y168560D01*
X3868313Y169418D01*
X3869015Y170228D01*
X3869772Y170985D01*
X3870582Y171687D01*
X3871440Y172329D01*
X3872341Y172908D01*
X3873281Y173422D01*
X3874256Y173867D01*
X3875260Y174241D01*
X3876288Y174543D01*
X3877335Y174771D01*
X3878396Y174924D01*
X3879464Y175000D01*
X3880536Y175000D01*
X3881604Y174924D01*
X3882665Y174771D01*
X3883712Y174543D01*
X3884740Y174241D01*
X3885744Y173867D01*
X3886719Y173422D01*
X3887659Y172908D01*
X3888560Y172329D01*
X3889418Y171687D01*
X3890228Y170985D01*
X3890985Y170228D01*
X3891687Y169418D01*
X3892329Y168560D01*
X3892908Y167659D01*
X3893422Y166719D01*
X3893867Y165744D01*
X3894241Y164740D01*
X3894543Y163712D01*
X3894771Y162665D01*
X3894924Y161604D01*
X3895000Y160536D01*
X3895000Y159464D01*
X3805000Y389464D02*
X3804924Y388396D01*
X3804771Y387335D01*
X3804543Y386288D01*
X3804241Y385260D01*
X3803867Y384256D01*
X3803422Y383281D01*
X3802908Y382341D01*
X3802329Y381440D01*
X3801687Y380582D01*
X3800985Y379772D01*
X3800228Y379015D01*
X3799418Y378313D01*
X3798560Y377671D01*
X3797659Y377092D01*
X3796719Y376578D01*
X3795744Y376133D01*
X3794740Y375759D01*
X3793712Y375457D01*
X3792665Y375229D01*
X3791604Y375076D01*
X3790536Y375000D01*
X3789464Y375000D01*
X3788396Y375076D01*
X3787335Y375229D01*
X3786288Y375457D01*
X3785260Y375759D01*
X3784256Y376133D01*
X3783281Y376578D01*
X3782341Y377092D01*
X3781440Y377671D01*
X3780582Y378313D01*
X3779772Y379015D01*
X3779015Y379772D01*
X3778313Y380582D01*
X3777671Y381440D01*
X3777092Y382341D01*
X3776578Y383281D01*
X3776133Y384256D01*
X3775759Y385260D01*
X3775457Y386288D01*
X3775229Y387335D01*
X3775076Y388396D01*
X3775000Y389464D01*
X3775000Y390536D01*
X3775076Y391604D01*
X3775229Y392665D01*
X3775457Y393712D01*
X3775759Y394740D01*
X3776133Y395744D01*
X3776578Y396719D01*
X3777092Y397659D01*
X3777671Y398560D01*
X3778313Y399418D01*
X3779015Y400228D01*
X3779772Y400985D01*
X3780582Y401687D01*
X3781440Y402329D01*
X3782341Y402908D01*
X3783281Y403422D01*
X3784256Y403867D01*
X3785260Y404241D01*
X3786288Y404543D01*
X3787335Y404771D01*
X3788396Y404924D01*
X3789464Y405000D01*
X3790536Y405000D01*
X3791604Y404924D01*
X3792665Y404771D01*
X3793712Y404543D01*
X3794740Y404241D01*
X3795744Y403867D01*
X3796719Y403422D01*
X3797659Y402908D01*
X3798560Y402329D01*
X3799418Y401687D01*
X3800228Y400985D01*
X3800985Y400228D01*
X3801687Y399418D01*
X3802329Y398560D01*
X3802908Y397659D01*
X3803422Y396719D01*
X3803867Y395744D01*
X3804241Y394740D01*
X3804543Y393712D01*
X3804771Y392665D01*
X3804924Y391604D01*
X3805000Y390536D01*
X3805000Y389464D01*
M02*
