G04 EAGLE Gerber RS-274X export*
G75*
%MOMM*%
%FSLAX34Y34*%
%LPD*%
%INSoldermask Top*%
%IPPOS*%
%AMOC8*
5,1,8,0,0,1.08239X$1,22.5*%
G01*
%ADD10C,3.203200*%
%ADD11C,1.727200*%
%ADD12C,2.153200*%
%ADD13P,1.649562X8X202.500000*%
%ADD14P,1.649562X8X112.500000*%


D10*
X698500Y266700D03*
X838200Y266700D03*
X768350Y2590800D03*
D11*
X838200Y2583180D02*
X838200Y2598420D01*
X812800Y2598420D02*
X812800Y2583180D01*
X723900Y2583180D02*
X723900Y2598420D01*
X698500Y2598420D02*
X698500Y2583180D01*
D12*
X719750Y2527300D02*
X739250Y2527300D01*
X784750Y2527300D02*
X804250Y2527300D01*
D13*
X774700Y2473884D03*
X749300Y2473884D03*
D14*
X800100Y2355164D03*
X800100Y2431364D03*
D12*
X739250Y2306320D02*
X719750Y2306320D01*
X784750Y2306320D02*
X804250Y2306320D01*
D13*
X774700Y2252904D03*
X749300Y2252904D03*
D14*
X800100Y2134184D03*
X800100Y2210384D03*
D12*
X739250Y2085340D02*
X719750Y2085340D01*
X784750Y2085340D02*
X804250Y2085340D01*
D13*
X774700Y2031924D03*
X749300Y2031924D03*
D14*
X800100Y1913204D03*
X800100Y1989404D03*
D12*
X739250Y1864360D02*
X719750Y1864360D01*
X784750Y1864360D02*
X804250Y1864360D01*
D13*
X774700Y1810944D03*
X749300Y1810944D03*
D14*
X800100Y1692224D03*
X800100Y1768424D03*
D12*
X739250Y1643380D02*
X719750Y1643380D01*
X784750Y1643380D02*
X804250Y1643380D01*
D13*
X774700Y1589964D03*
X749300Y1589964D03*
D14*
X800100Y1471244D03*
X800100Y1547444D03*
D12*
X739250Y1422400D02*
X719750Y1422400D01*
X784750Y1422400D02*
X804250Y1422400D01*
D13*
X774700Y1368984D03*
X749300Y1368984D03*
D14*
X800100Y1250264D03*
X800100Y1326464D03*
D12*
X739250Y1201420D02*
X719750Y1201420D01*
X784750Y1201420D02*
X804250Y1201420D01*
D13*
X774700Y1148004D03*
X749300Y1148004D03*
D14*
X800100Y1029284D03*
X800100Y1105484D03*
D12*
X739250Y980440D02*
X719750Y980440D01*
X784750Y980440D02*
X804250Y980440D01*
D13*
X774700Y927024D03*
X749300Y927024D03*
D14*
X800100Y808304D03*
X800100Y884504D03*
D12*
X739250Y759460D02*
X719750Y759460D01*
X784750Y759460D02*
X804250Y759460D01*
D13*
X774700Y706044D03*
X749300Y706044D03*
D14*
X800100Y587324D03*
X800100Y663524D03*
D12*
X739250Y538480D02*
X719750Y538480D01*
X784750Y538480D02*
X804250Y538480D01*
D13*
X774700Y485064D03*
X749300Y485064D03*
D14*
X737870Y588594D03*
X737870Y664794D03*
D12*
X739250Y317500D02*
X719750Y317500D01*
X784750Y317500D02*
X804250Y317500D01*
D13*
X774700Y378577D03*
X749300Y378577D03*
D14*
X812800Y365259D03*
X812800Y441459D03*
M02*
