G04 EAGLE Gerber RS-274X export*
G75*
%MOMM*%
%FSLAX34Y34*%
%LPD*%
%INBottom Copper*%
%IPPOS*%
%AMOC8*
5,1,8,0,0,1.08239X$1,22.5*%
G01*
%ADD10C,1.524000*%
%ADD11C,1.950000*%
%ADD12P,1.429621X8X202.500000*%
%ADD13P,1.429621X8X112.500000*%
%ADD14C,0.600000*%


D10*
X838200Y2583180D02*
X838200Y2598420D01*
X812800Y2598420D02*
X812800Y2583180D01*
X723900Y2583180D02*
X723900Y2598420D01*
X698500Y2598420D02*
X698500Y2583180D01*
D11*
X719750Y2527300D02*
X739250Y2527300D01*
X784750Y2527300D02*
X804250Y2527300D01*
D12*
X774700Y2473884D03*
X749300Y2473884D03*
D13*
X800100Y2355164D03*
X800100Y2431364D03*
D11*
X739250Y2306320D02*
X719750Y2306320D01*
X784750Y2306320D02*
X804250Y2306320D01*
D12*
X774700Y2252904D03*
X749300Y2252904D03*
D13*
X800100Y2134184D03*
X800100Y2210384D03*
D11*
X739250Y2085340D02*
X719750Y2085340D01*
X784750Y2085340D02*
X804250Y2085340D01*
D12*
X774700Y2031924D03*
X749300Y2031924D03*
D13*
X800100Y1913204D03*
X800100Y1989404D03*
D11*
X739250Y1864360D02*
X719750Y1864360D01*
X784750Y1864360D02*
X804250Y1864360D01*
D12*
X774700Y1810944D03*
X749300Y1810944D03*
D13*
X800100Y1692224D03*
X800100Y1768424D03*
D11*
X739250Y1643380D02*
X719750Y1643380D01*
X784750Y1643380D02*
X804250Y1643380D01*
D12*
X774700Y1589964D03*
X749300Y1589964D03*
D13*
X800100Y1471244D03*
X800100Y1547444D03*
D11*
X739250Y1422400D02*
X719750Y1422400D01*
X784750Y1422400D02*
X804250Y1422400D01*
D12*
X774700Y1368984D03*
X749300Y1368984D03*
D13*
X800100Y1250264D03*
X800100Y1326464D03*
D11*
X739250Y1201420D02*
X719750Y1201420D01*
X784750Y1201420D02*
X804250Y1201420D01*
D12*
X774700Y1148004D03*
X749300Y1148004D03*
D13*
X800100Y1029284D03*
X800100Y1105484D03*
D11*
X739250Y980440D02*
X719750Y980440D01*
X784750Y980440D02*
X804250Y980440D01*
D12*
X774700Y927024D03*
X749300Y927024D03*
D13*
X800100Y808304D03*
X800100Y884504D03*
D11*
X739250Y759460D02*
X719750Y759460D01*
X784750Y759460D02*
X804250Y759460D01*
D12*
X774700Y706044D03*
X749300Y706044D03*
D13*
X800100Y587324D03*
X800100Y663524D03*
D11*
X739250Y538480D02*
X719750Y538480D01*
X784750Y538480D02*
X804250Y538480D01*
D12*
X774700Y485064D03*
X749300Y485064D03*
D13*
X737870Y588594D03*
X737870Y664794D03*
D11*
X739250Y317500D02*
X719750Y317500D01*
X784750Y317500D02*
X804250Y317500D01*
D12*
X774700Y378577D03*
X749300Y378577D03*
D13*
X812800Y365259D03*
X812800Y441459D03*
D14*
X698500Y2590800D02*
X698500Y2612440D01*
X791160Y2612440D02*
X812800Y2590800D01*
X791160Y2612440D02*
X698500Y2612440D01*
X749300Y378577D02*
X729500Y358777D01*
X729500Y317500D01*
X749300Y2507500D02*
X729500Y2527300D01*
X749300Y2507500D02*
X749300Y2473884D01*
X749300Y2527300D02*
X812800Y2590800D01*
X749300Y2527300D02*
X729500Y2527300D01*
X729500Y2085340D02*
X749300Y2065540D01*
X749300Y2031924D01*
X729500Y2012124D01*
X729500Y1864360D01*
X729500Y1830744D01*
X749300Y1810944D01*
X729500Y1791144D01*
X729500Y1643380D01*
X749300Y1623580D01*
X749300Y1589964D01*
X749300Y1562100D01*
X723900Y1536700D01*
X723900Y1428000D01*
X729500Y1422400D01*
X749300Y1402600D01*
X749300Y1368984D01*
X729500Y2272704D02*
X729500Y2306320D01*
X729500Y2272704D02*
X749300Y2252904D01*
X729500Y2233104D01*
X729500Y2085340D01*
X729500Y2454084D02*
X749300Y2473884D01*
X729500Y2454084D02*
X729500Y2306320D01*
X749300Y1368984D02*
X749300Y1221220D01*
X729500Y1201420D01*
X729500Y1167804D01*
X749300Y1148004D01*
X749300Y1000240D01*
X729500Y980440D01*
X749300Y960640D01*
X749300Y927024D01*
X749300Y779260D01*
X729500Y759460D01*
X729500Y725844D01*
X749300Y706044D01*
X720266Y581302D02*
X729500Y572068D01*
X729500Y538480D01*
X720266Y677010D02*
X749300Y706044D01*
X720266Y677010D02*
X720266Y581302D01*
X729500Y538480D02*
X749300Y518680D01*
X749300Y485064D01*
X749300Y378577D01*
X794500Y2493684D02*
X794500Y2527300D01*
X794500Y2493684D02*
X774700Y2473884D01*
X774700Y2380564D01*
X800100Y2355164D01*
X825500Y2329764D01*
X825500Y2235784D02*
X800100Y2210384D01*
X825500Y2235784D02*
X825500Y2329764D01*
X794500Y2306320D02*
X794500Y2272704D01*
X774700Y2252904D01*
X774700Y2159584D01*
X800100Y2134184D01*
X825000Y2093935D02*
X825000Y2076745D01*
X800100Y2118835D02*
X800100Y2134184D01*
X800100Y2051845D02*
X800100Y1989404D01*
X825000Y2093935D02*
X800100Y2118835D01*
X825000Y2076745D02*
X800100Y2051845D01*
X774700Y2065540D02*
X794500Y2085340D01*
X774700Y2065540D02*
X774700Y2031924D01*
X825000Y1872955D02*
X825000Y1855765D01*
X800100Y1830865D02*
X800100Y1768424D01*
X800100Y1897855D02*
X800100Y1913204D01*
X825000Y1855765D02*
X800100Y1830865D01*
X825000Y1872955D02*
X800100Y1897855D01*
X774700Y1938604D02*
X774700Y2031924D01*
X774700Y1938604D02*
X800100Y1913204D01*
X825000Y1651975D02*
X825000Y1634785D01*
X800100Y1676875D02*
X800100Y1692224D01*
X800100Y1609885D02*
X800100Y1547444D01*
X825000Y1651975D02*
X800100Y1676875D01*
X825000Y1634785D02*
X800100Y1609885D01*
X782496Y1803148D02*
X774700Y1810944D01*
X800100Y1743528D02*
X800100Y1692224D01*
X782496Y1761132D02*
X782496Y1803148D01*
X782496Y1761132D02*
X800100Y1743528D01*
X794500Y1845064D02*
X794500Y1864360D01*
X794500Y1845064D02*
X786100Y1836664D01*
X786100Y1822344D02*
X774700Y1810944D01*
X786100Y1822344D02*
X786100Y1836664D01*
X774700Y1589964D02*
X774700Y1485900D01*
X789356Y1471244D01*
X800100Y1471244D01*
X774700Y1623580D02*
X794500Y1643380D01*
X774700Y1623580D02*
X774700Y1589964D01*
X800100Y1471244D02*
X825500Y1445844D01*
X825500Y1371600D02*
X800100Y1346200D01*
X800100Y1326464D01*
X825500Y1371600D02*
X825500Y1445844D01*
X774700Y1402600D02*
X774700Y1368984D01*
X774700Y1402600D02*
X794500Y1422400D01*
X774700Y1275664D02*
X800100Y1250264D01*
X774700Y1275664D02*
X774700Y1368984D01*
X825000Y1210015D02*
X825000Y1192825D01*
X800100Y1234915D02*
X800100Y1250264D01*
X800100Y1167925D02*
X800100Y1105484D01*
X825000Y1210015D02*
X800100Y1234915D01*
X825000Y1192825D02*
X800100Y1167925D01*
X794500Y1182124D02*
X794500Y1201420D01*
X794500Y1182124D02*
X786100Y1173724D01*
X786100Y1159404D02*
X774700Y1148004D01*
X786100Y1159404D02*
X786100Y1173724D01*
X774700Y1148004D02*
X774700Y1054684D01*
X800100Y1029284D01*
X825000Y989035D02*
X825000Y971845D01*
X800100Y1013935D02*
X800100Y1029284D01*
X800100Y946945D02*
X800100Y884504D01*
X825000Y989035D02*
X800100Y1013935D01*
X825000Y971845D02*
X800100Y946945D01*
X774700Y960640D02*
X794500Y980440D01*
X774700Y960640D02*
X774700Y927024D01*
X774700Y833704D01*
X800100Y808304D01*
X825000Y768055D02*
X825000Y750865D01*
X800100Y792955D02*
X800100Y808304D01*
X800100Y725965D02*
X800100Y663524D01*
X825000Y768055D02*
X800100Y792955D01*
X825000Y750865D02*
X800100Y725965D01*
X774700Y739660D02*
X794500Y759460D01*
X774700Y739660D02*
X774700Y706044D01*
X774700Y701624D01*
X737870Y664794D01*
X737870Y649554D02*
X800100Y587324D01*
X737870Y649554D02*
X737870Y664794D01*
X737870Y588594D02*
X787984Y538480D01*
X794500Y538480D01*
X774700Y518680D01*
X774700Y485064D01*
X812800Y446964D01*
X812800Y441459D01*
X838200Y2469464D02*
X838200Y2590800D01*
X838200Y2469464D02*
X800100Y2431364D01*
X723900Y2578100D02*
X723900Y2590800D01*
X686260Y292100D02*
X787400Y292100D01*
X787400Y310400D02*
X794500Y317500D01*
X686260Y2540460D02*
X723900Y2578100D01*
X686260Y2540460D02*
X686260Y292100D01*
X787400Y292100D02*
X787400Y310400D01*
X799481Y378577D02*
X774700Y378577D01*
X799481Y378577D02*
X812800Y365259D01*
X794500Y346959D02*
X794500Y317500D01*
X794500Y346959D02*
X812800Y365259D01*
M02*
