G04 EAGLE Gerber RS-274X export*
G75*
%MOMM*%
%FSLAX34Y34*%
%LPD*%
%INTop Copper*%
%IPPOS*%
%AMOC8*
5,1,8,0,0,1.08239X$1,22.5*%
G01*
%ADD10C,0.130000*%
%ADD11C,0.152400*%
%ADD12C,1.524000*%
%ADD13C,1.950000*%
%ADD14P,1.429621X8X202.500000*%
%ADD15P,1.429621X8X112.500000*%


D10*
X673100Y2625600D02*
X602800Y2625600D01*
X602800Y241300D02*
X673100Y241300D01*
X622300Y241950D02*
X622300Y2624950D01*
X619108Y2599600D01*
X625492Y2599600D01*
X622300Y2624950D01*
X621000Y2599600D01*
X623600Y2599600D02*
X622300Y2624950D01*
X619700Y2599600D01*
X624900Y2599600D02*
X622300Y2624950D01*
X619108Y267300D02*
X622300Y241950D01*
X619108Y267300D02*
X625492Y267300D01*
X622300Y241950D01*
X621000Y267300D01*
X623600Y267300D02*
X622300Y241950D01*
X619700Y267300D01*
X624900Y267300D02*
X622300Y241950D01*
D11*
X599537Y1400173D02*
X599539Y1400298D01*
X599545Y1400423D01*
X599554Y1400548D01*
X599568Y1400672D01*
X599585Y1400796D01*
X599606Y1400920D01*
X599631Y1401042D01*
X599660Y1401164D01*
X599692Y1401285D01*
X599728Y1401405D01*
X599768Y1401524D01*
X599811Y1401641D01*
X599858Y1401757D01*
X599909Y1401872D01*
X599963Y1401984D01*
X600021Y1402096D01*
X600081Y1402205D01*
X600146Y1402312D01*
X600213Y1402418D01*
X600284Y1402521D01*
X600358Y1402622D01*
X600435Y1402721D01*
X600515Y1402817D01*
X600598Y1402911D01*
X600683Y1403002D01*
X600772Y1403091D01*
X600863Y1403176D01*
X600957Y1403259D01*
X601053Y1403339D01*
X601152Y1403416D01*
X601253Y1403490D01*
X601356Y1403561D01*
X601462Y1403628D01*
X601569Y1403693D01*
X601678Y1403753D01*
X601790Y1403811D01*
X601902Y1403865D01*
X602017Y1403916D01*
X602133Y1403963D01*
X602250Y1404006D01*
X602369Y1404046D01*
X602489Y1404082D01*
X602610Y1404114D01*
X602732Y1404143D01*
X602854Y1404168D01*
X602978Y1404189D01*
X603102Y1404206D01*
X603226Y1404220D01*
X603351Y1404229D01*
X603476Y1404235D01*
X603601Y1404237D01*
X599537Y1400173D02*
X599539Y1400030D01*
X599545Y1399888D01*
X599555Y1399745D01*
X599568Y1399603D01*
X599586Y1399462D01*
X599607Y1399320D01*
X599632Y1399180D01*
X599661Y1399040D01*
X599694Y1398901D01*
X599731Y1398763D01*
X599771Y1398626D01*
X599815Y1398491D01*
X599863Y1398356D01*
X599915Y1398223D01*
X599970Y1398091D01*
X600029Y1397961D01*
X600091Y1397833D01*
X600157Y1397706D01*
X600226Y1397581D01*
X600298Y1397458D01*
X600374Y1397337D01*
X600453Y1397219D01*
X600536Y1397102D01*
X600621Y1396988D01*
X600710Y1396876D01*
X600801Y1396767D01*
X600896Y1396660D01*
X600993Y1396555D01*
X601094Y1396454D01*
X601197Y1396355D01*
X601302Y1396259D01*
X601411Y1396166D01*
X601522Y1396076D01*
X601635Y1395989D01*
X601750Y1395905D01*
X601868Y1395825D01*
X601988Y1395747D01*
X602110Y1395673D01*
X602234Y1395603D01*
X602360Y1395535D01*
X602488Y1395472D01*
X602617Y1395411D01*
X602748Y1395354D01*
X602880Y1395301D01*
X603014Y1395252D01*
X603149Y1395206D01*
X606762Y1402882D02*
X606670Y1402976D01*
X606576Y1403066D01*
X606479Y1403154D01*
X606379Y1403239D01*
X606277Y1403321D01*
X606172Y1403399D01*
X606065Y1403475D01*
X605956Y1403547D01*
X605845Y1403616D01*
X605731Y1403682D01*
X605616Y1403744D01*
X605499Y1403803D01*
X605380Y1403858D01*
X605260Y1403909D01*
X605138Y1403957D01*
X605015Y1404002D01*
X604891Y1404042D01*
X604765Y1404079D01*
X604638Y1404112D01*
X604511Y1404141D01*
X604382Y1404167D01*
X604253Y1404188D01*
X604123Y1404206D01*
X603993Y1404219D01*
X603863Y1404229D01*
X603732Y1404235D01*
X603601Y1404237D01*
X606762Y1402882D02*
X615793Y1395206D01*
X615793Y1404237D01*
X615793Y1410837D02*
X615793Y1415353D01*
X615791Y1415486D01*
X615785Y1415618D01*
X615775Y1415750D01*
X615762Y1415882D01*
X615744Y1416014D01*
X615723Y1416144D01*
X615698Y1416275D01*
X615669Y1416404D01*
X615636Y1416532D01*
X615600Y1416660D01*
X615560Y1416786D01*
X615516Y1416911D01*
X615468Y1417035D01*
X615417Y1417157D01*
X615362Y1417278D01*
X615304Y1417397D01*
X615242Y1417515D01*
X615177Y1417630D01*
X615108Y1417744D01*
X615037Y1417855D01*
X614961Y1417964D01*
X614883Y1418071D01*
X614802Y1418176D01*
X614717Y1418278D01*
X614630Y1418378D01*
X614540Y1418475D01*
X614447Y1418570D01*
X614351Y1418661D01*
X614253Y1418750D01*
X614152Y1418836D01*
X614048Y1418919D01*
X613942Y1418999D01*
X613834Y1419075D01*
X613724Y1419149D01*
X613611Y1419219D01*
X613497Y1419286D01*
X613380Y1419349D01*
X613262Y1419409D01*
X613142Y1419466D01*
X613020Y1419519D01*
X612897Y1419568D01*
X612773Y1419614D01*
X612647Y1419656D01*
X612520Y1419694D01*
X612392Y1419729D01*
X612263Y1419760D01*
X612134Y1419787D01*
X612003Y1419810D01*
X611872Y1419830D01*
X611740Y1419845D01*
X611608Y1419857D01*
X611476Y1419865D01*
X611343Y1419869D01*
X611211Y1419869D01*
X611078Y1419865D01*
X610946Y1419857D01*
X610814Y1419845D01*
X610682Y1419830D01*
X610551Y1419810D01*
X610420Y1419787D01*
X610291Y1419760D01*
X610162Y1419729D01*
X610034Y1419694D01*
X609907Y1419656D01*
X609781Y1419614D01*
X609657Y1419568D01*
X609534Y1419519D01*
X609412Y1419466D01*
X609292Y1419409D01*
X609174Y1419349D01*
X609057Y1419286D01*
X608943Y1419219D01*
X608830Y1419149D01*
X608720Y1419075D01*
X608612Y1418999D01*
X608506Y1418919D01*
X608402Y1418836D01*
X608301Y1418750D01*
X608203Y1418661D01*
X608107Y1418570D01*
X608014Y1418475D01*
X607924Y1418378D01*
X607837Y1418278D01*
X607752Y1418176D01*
X607671Y1418071D01*
X607593Y1417964D01*
X607517Y1417855D01*
X607446Y1417744D01*
X607377Y1417630D01*
X607312Y1417515D01*
X607250Y1417397D01*
X607192Y1417278D01*
X607137Y1417157D01*
X607086Y1417035D01*
X607038Y1416911D01*
X606994Y1416786D01*
X606954Y1416660D01*
X606918Y1416532D01*
X606885Y1416404D01*
X606856Y1416275D01*
X606831Y1416144D01*
X606810Y1416014D01*
X606792Y1415882D01*
X606779Y1415750D01*
X606769Y1415618D01*
X606763Y1415486D01*
X606761Y1415353D01*
X599537Y1416256D02*
X599537Y1410837D01*
X599537Y1416256D02*
X599539Y1416375D01*
X599545Y1416495D01*
X599555Y1416614D01*
X599569Y1416732D01*
X599586Y1416851D01*
X599608Y1416968D01*
X599633Y1417085D01*
X599663Y1417200D01*
X599696Y1417315D01*
X599733Y1417429D01*
X599773Y1417541D01*
X599818Y1417652D01*
X599866Y1417761D01*
X599917Y1417869D01*
X599972Y1417975D01*
X600031Y1418079D01*
X600093Y1418181D01*
X600158Y1418281D01*
X600227Y1418379D01*
X600299Y1418475D01*
X600374Y1418568D01*
X600451Y1418658D01*
X600532Y1418746D01*
X600616Y1418831D01*
X600703Y1418913D01*
X600792Y1418993D01*
X600884Y1419069D01*
X600978Y1419143D01*
X601075Y1419213D01*
X601173Y1419280D01*
X601274Y1419344D01*
X601378Y1419404D01*
X601483Y1419461D01*
X601590Y1419514D01*
X601698Y1419564D01*
X601808Y1419610D01*
X601920Y1419652D01*
X602033Y1419691D01*
X602147Y1419726D01*
X602262Y1419757D01*
X602379Y1419785D01*
X602496Y1419808D01*
X602613Y1419828D01*
X602732Y1419844D01*
X602851Y1419856D01*
X602970Y1419864D01*
X603089Y1419868D01*
X603209Y1419868D01*
X603328Y1419864D01*
X603447Y1419856D01*
X603566Y1419844D01*
X603685Y1419828D01*
X603802Y1419808D01*
X603919Y1419785D01*
X604036Y1419757D01*
X604151Y1419726D01*
X604265Y1419691D01*
X604378Y1419652D01*
X604490Y1419610D01*
X604600Y1419564D01*
X604708Y1419514D01*
X604815Y1419461D01*
X604920Y1419404D01*
X605024Y1419344D01*
X605125Y1419280D01*
X605223Y1419213D01*
X605320Y1419143D01*
X605414Y1419069D01*
X605506Y1418993D01*
X605595Y1418913D01*
X605682Y1418831D01*
X605766Y1418746D01*
X605847Y1418658D01*
X605924Y1418568D01*
X605999Y1418475D01*
X606071Y1418379D01*
X606140Y1418281D01*
X606205Y1418181D01*
X606267Y1418079D01*
X606326Y1417975D01*
X606381Y1417869D01*
X606432Y1417761D01*
X606480Y1417652D01*
X606525Y1417541D01*
X606565Y1417429D01*
X606602Y1417315D01*
X606635Y1417200D01*
X606665Y1417085D01*
X606690Y1416968D01*
X606712Y1416851D01*
X606729Y1416732D01*
X606743Y1416614D01*
X606753Y1416495D01*
X606759Y1416375D01*
X606761Y1416256D01*
X606762Y1416256D02*
X606762Y1412643D01*
X611277Y1426468D02*
X611144Y1426470D01*
X611012Y1426476D01*
X610880Y1426486D01*
X610748Y1426499D01*
X610616Y1426517D01*
X610486Y1426538D01*
X610355Y1426563D01*
X610226Y1426592D01*
X610098Y1426625D01*
X609970Y1426661D01*
X609844Y1426701D01*
X609719Y1426745D01*
X609595Y1426793D01*
X609473Y1426844D01*
X609352Y1426899D01*
X609233Y1426957D01*
X609115Y1427019D01*
X609000Y1427084D01*
X608886Y1427153D01*
X608775Y1427224D01*
X608666Y1427300D01*
X608559Y1427378D01*
X608454Y1427459D01*
X608352Y1427544D01*
X608252Y1427631D01*
X608155Y1427721D01*
X608060Y1427814D01*
X607969Y1427910D01*
X607880Y1428008D01*
X607794Y1428109D01*
X607711Y1428213D01*
X607631Y1428319D01*
X607555Y1428427D01*
X607481Y1428537D01*
X607411Y1428650D01*
X607344Y1428764D01*
X607281Y1428881D01*
X607221Y1428999D01*
X607164Y1429119D01*
X607111Y1429241D01*
X607062Y1429364D01*
X607016Y1429488D01*
X606974Y1429614D01*
X606936Y1429741D01*
X606901Y1429869D01*
X606870Y1429998D01*
X606843Y1430127D01*
X606820Y1430258D01*
X606800Y1430389D01*
X606785Y1430521D01*
X606773Y1430653D01*
X606765Y1430785D01*
X606761Y1430918D01*
X606761Y1431050D01*
X606765Y1431183D01*
X606773Y1431315D01*
X606785Y1431447D01*
X606800Y1431579D01*
X606820Y1431710D01*
X606843Y1431841D01*
X606870Y1431970D01*
X606901Y1432099D01*
X606936Y1432227D01*
X606974Y1432354D01*
X607016Y1432480D01*
X607062Y1432604D01*
X607111Y1432727D01*
X607164Y1432849D01*
X607221Y1432969D01*
X607281Y1433087D01*
X607344Y1433204D01*
X607411Y1433318D01*
X607481Y1433431D01*
X607555Y1433541D01*
X607631Y1433649D01*
X607711Y1433755D01*
X607794Y1433859D01*
X607880Y1433960D01*
X607969Y1434058D01*
X608060Y1434154D01*
X608155Y1434247D01*
X608252Y1434337D01*
X608352Y1434424D01*
X608454Y1434509D01*
X608559Y1434590D01*
X608666Y1434668D01*
X608775Y1434744D01*
X608886Y1434815D01*
X609000Y1434884D01*
X609115Y1434949D01*
X609233Y1435011D01*
X609352Y1435069D01*
X609473Y1435124D01*
X609595Y1435175D01*
X609719Y1435223D01*
X609844Y1435267D01*
X609970Y1435307D01*
X610098Y1435343D01*
X610226Y1435376D01*
X610355Y1435405D01*
X610486Y1435430D01*
X610616Y1435451D01*
X610748Y1435469D01*
X610880Y1435482D01*
X611012Y1435492D01*
X611144Y1435498D01*
X611277Y1435500D01*
X611410Y1435498D01*
X611542Y1435492D01*
X611674Y1435482D01*
X611806Y1435469D01*
X611938Y1435451D01*
X612068Y1435430D01*
X612199Y1435405D01*
X612328Y1435376D01*
X612456Y1435343D01*
X612584Y1435307D01*
X612710Y1435267D01*
X612835Y1435223D01*
X612959Y1435175D01*
X613081Y1435124D01*
X613202Y1435069D01*
X613321Y1435011D01*
X613439Y1434949D01*
X613554Y1434884D01*
X613668Y1434815D01*
X613779Y1434744D01*
X613888Y1434668D01*
X613995Y1434590D01*
X614100Y1434509D01*
X614202Y1434424D01*
X614302Y1434337D01*
X614399Y1434247D01*
X614494Y1434154D01*
X614585Y1434058D01*
X614674Y1433960D01*
X614760Y1433859D01*
X614843Y1433755D01*
X614923Y1433649D01*
X614999Y1433541D01*
X615073Y1433431D01*
X615143Y1433318D01*
X615210Y1433204D01*
X615273Y1433087D01*
X615333Y1432969D01*
X615390Y1432849D01*
X615443Y1432727D01*
X615492Y1432604D01*
X615538Y1432480D01*
X615580Y1432354D01*
X615618Y1432227D01*
X615653Y1432099D01*
X615684Y1431970D01*
X615711Y1431841D01*
X615734Y1431710D01*
X615754Y1431579D01*
X615769Y1431447D01*
X615781Y1431315D01*
X615789Y1431183D01*
X615793Y1431050D01*
X615793Y1430918D01*
X615789Y1430785D01*
X615781Y1430653D01*
X615769Y1430521D01*
X615754Y1430389D01*
X615734Y1430258D01*
X615711Y1430127D01*
X615684Y1429998D01*
X615653Y1429869D01*
X615618Y1429741D01*
X615580Y1429614D01*
X615538Y1429488D01*
X615492Y1429364D01*
X615443Y1429241D01*
X615390Y1429119D01*
X615333Y1428999D01*
X615273Y1428881D01*
X615210Y1428764D01*
X615143Y1428650D01*
X615073Y1428537D01*
X614999Y1428427D01*
X614923Y1428319D01*
X614843Y1428213D01*
X614760Y1428109D01*
X614674Y1428008D01*
X614585Y1427910D01*
X614494Y1427814D01*
X614399Y1427721D01*
X614302Y1427631D01*
X614202Y1427544D01*
X614100Y1427459D01*
X613995Y1427378D01*
X613888Y1427300D01*
X613779Y1427224D01*
X613668Y1427153D01*
X613554Y1427084D01*
X613439Y1427019D01*
X613321Y1426957D01*
X613202Y1426899D01*
X613081Y1426844D01*
X612959Y1426793D01*
X612835Y1426745D01*
X612710Y1426701D01*
X612584Y1426661D01*
X612456Y1426625D01*
X612328Y1426592D01*
X612199Y1426563D01*
X612068Y1426538D01*
X611938Y1426517D01*
X611806Y1426499D01*
X611674Y1426486D01*
X611542Y1426476D01*
X611410Y1426470D01*
X611277Y1426468D01*
X603149Y1427372D02*
X603030Y1427374D01*
X602910Y1427380D01*
X602791Y1427390D01*
X602673Y1427404D01*
X602554Y1427421D01*
X602437Y1427443D01*
X602320Y1427468D01*
X602205Y1427498D01*
X602090Y1427531D01*
X601976Y1427568D01*
X601864Y1427608D01*
X601753Y1427653D01*
X601644Y1427701D01*
X601536Y1427752D01*
X601430Y1427807D01*
X601326Y1427866D01*
X601224Y1427928D01*
X601124Y1427993D01*
X601026Y1428062D01*
X600930Y1428134D01*
X600837Y1428209D01*
X600747Y1428286D01*
X600659Y1428367D01*
X600574Y1428451D01*
X600492Y1428538D01*
X600412Y1428627D01*
X600336Y1428719D01*
X600262Y1428813D01*
X600192Y1428910D01*
X600125Y1429008D01*
X600061Y1429109D01*
X600001Y1429213D01*
X599944Y1429318D01*
X599891Y1429425D01*
X599841Y1429533D01*
X599795Y1429643D01*
X599753Y1429755D01*
X599714Y1429868D01*
X599679Y1429982D01*
X599648Y1430097D01*
X599620Y1430214D01*
X599597Y1430331D01*
X599577Y1430448D01*
X599561Y1430567D01*
X599549Y1430686D01*
X599541Y1430805D01*
X599537Y1430924D01*
X599537Y1431044D01*
X599541Y1431163D01*
X599549Y1431282D01*
X599561Y1431401D01*
X599577Y1431520D01*
X599597Y1431637D01*
X599620Y1431754D01*
X599648Y1431871D01*
X599679Y1431986D01*
X599714Y1432100D01*
X599753Y1432213D01*
X599795Y1432325D01*
X599841Y1432435D01*
X599891Y1432543D01*
X599944Y1432650D01*
X600001Y1432755D01*
X600061Y1432859D01*
X600125Y1432960D01*
X600192Y1433058D01*
X600262Y1433155D01*
X600336Y1433249D01*
X600412Y1433341D01*
X600492Y1433430D01*
X600574Y1433517D01*
X600659Y1433601D01*
X600747Y1433682D01*
X600837Y1433759D01*
X600930Y1433834D01*
X601026Y1433906D01*
X601124Y1433975D01*
X601224Y1434040D01*
X601326Y1434102D01*
X601430Y1434161D01*
X601536Y1434216D01*
X601644Y1434267D01*
X601753Y1434315D01*
X601864Y1434360D01*
X601976Y1434400D01*
X602090Y1434437D01*
X602205Y1434470D01*
X602320Y1434500D01*
X602437Y1434525D01*
X602554Y1434547D01*
X602673Y1434564D01*
X602791Y1434578D01*
X602910Y1434588D01*
X603030Y1434594D01*
X603149Y1434596D01*
X603268Y1434594D01*
X603388Y1434588D01*
X603507Y1434578D01*
X603625Y1434564D01*
X603744Y1434547D01*
X603861Y1434525D01*
X603978Y1434500D01*
X604093Y1434470D01*
X604208Y1434437D01*
X604322Y1434400D01*
X604434Y1434360D01*
X604545Y1434315D01*
X604654Y1434267D01*
X604762Y1434216D01*
X604868Y1434161D01*
X604972Y1434102D01*
X605074Y1434040D01*
X605174Y1433975D01*
X605272Y1433906D01*
X605368Y1433834D01*
X605461Y1433759D01*
X605551Y1433682D01*
X605639Y1433601D01*
X605724Y1433517D01*
X605806Y1433430D01*
X605886Y1433341D01*
X605962Y1433249D01*
X606036Y1433155D01*
X606106Y1433058D01*
X606173Y1432960D01*
X606237Y1432859D01*
X606297Y1432755D01*
X606354Y1432650D01*
X606407Y1432543D01*
X606457Y1432435D01*
X606503Y1432325D01*
X606545Y1432213D01*
X606584Y1432100D01*
X606619Y1431986D01*
X606650Y1431871D01*
X606678Y1431754D01*
X606701Y1431637D01*
X606721Y1431520D01*
X606737Y1431401D01*
X606749Y1431282D01*
X606757Y1431163D01*
X606761Y1431044D01*
X606761Y1430924D01*
X606757Y1430805D01*
X606749Y1430686D01*
X606737Y1430567D01*
X606721Y1430448D01*
X606701Y1430331D01*
X606678Y1430214D01*
X606650Y1430097D01*
X606619Y1429982D01*
X606584Y1429868D01*
X606545Y1429755D01*
X606503Y1429643D01*
X606457Y1429533D01*
X606407Y1429425D01*
X606354Y1429318D01*
X606297Y1429213D01*
X606237Y1429109D01*
X606173Y1429008D01*
X606106Y1428910D01*
X606036Y1428813D01*
X605962Y1428719D01*
X605886Y1428627D01*
X605806Y1428538D01*
X605724Y1428451D01*
X605639Y1428367D01*
X605551Y1428286D01*
X605461Y1428209D01*
X605368Y1428134D01*
X605272Y1428062D01*
X605174Y1427993D01*
X605074Y1427928D01*
X604972Y1427866D01*
X604868Y1427807D01*
X604762Y1427752D01*
X604654Y1427701D01*
X604545Y1427653D01*
X604434Y1427608D01*
X604322Y1427568D01*
X604208Y1427531D01*
X604093Y1427498D01*
X603978Y1427468D01*
X603861Y1427443D01*
X603744Y1427421D01*
X603625Y1427404D01*
X603507Y1427390D01*
X603388Y1427380D01*
X603268Y1427374D01*
X603149Y1427372D01*
X614890Y1441474D02*
X615793Y1441474D01*
X614890Y1441474D02*
X614890Y1442377D01*
X615793Y1442377D01*
X615793Y1441474D01*
X612181Y1448352D02*
X599537Y1451965D01*
X612181Y1448352D02*
X612181Y1457383D01*
X608568Y1454674D02*
X615793Y1454674D01*
X615793Y1463983D02*
X615793Y1468499D01*
X615791Y1468632D01*
X615785Y1468764D01*
X615775Y1468896D01*
X615762Y1469028D01*
X615744Y1469160D01*
X615723Y1469290D01*
X615698Y1469421D01*
X615669Y1469550D01*
X615636Y1469678D01*
X615600Y1469806D01*
X615560Y1469932D01*
X615516Y1470057D01*
X615468Y1470181D01*
X615417Y1470303D01*
X615362Y1470424D01*
X615304Y1470543D01*
X615242Y1470661D01*
X615177Y1470776D01*
X615108Y1470890D01*
X615037Y1471001D01*
X614961Y1471110D01*
X614883Y1471217D01*
X614802Y1471322D01*
X614717Y1471424D01*
X614630Y1471524D01*
X614540Y1471621D01*
X614447Y1471716D01*
X614351Y1471807D01*
X614253Y1471896D01*
X614152Y1471982D01*
X614048Y1472065D01*
X613942Y1472145D01*
X613834Y1472221D01*
X613724Y1472295D01*
X613611Y1472365D01*
X613497Y1472432D01*
X613380Y1472495D01*
X613262Y1472555D01*
X613142Y1472612D01*
X613020Y1472665D01*
X612897Y1472714D01*
X612773Y1472760D01*
X612647Y1472802D01*
X612520Y1472840D01*
X612392Y1472875D01*
X612263Y1472906D01*
X612134Y1472933D01*
X612003Y1472956D01*
X611872Y1472976D01*
X611740Y1472991D01*
X611608Y1473003D01*
X611476Y1473011D01*
X611343Y1473015D01*
X611211Y1473015D01*
X611078Y1473011D01*
X610946Y1473003D01*
X610814Y1472991D01*
X610682Y1472976D01*
X610551Y1472956D01*
X610420Y1472933D01*
X610291Y1472906D01*
X610162Y1472875D01*
X610034Y1472840D01*
X609907Y1472802D01*
X609781Y1472760D01*
X609657Y1472714D01*
X609534Y1472665D01*
X609412Y1472612D01*
X609292Y1472555D01*
X609174Y1472495D01*
X609057Y1472432D01*
X608943Y1472365D01*
X608830Y1472295D01*
X608720Y1472221D01*
X608612Y1472145D01*
X608506Y1472065D01*
X608402Y1471982D01*
X608301Y1471896D01*
X608203Y1471807D01*
X608107Y1471716D01*
X608014Y1471621D01*
X607924Y1471524D01*
X607837Y1471424D01*
X607752Y1471322D01*
X607671Y1471217D01*
X607593Y1471110D01*
X607517Y1471001D01*
X607446Y1470890D01*
X607377Y1470776D01*
X607312Y1470661D01*
X607250Y1470543D01*
X607192Y1470424D01*
X607137Y1470303D01*
X607086Y1470181D01*
X607038Y1470057D01*
X606994Y1469932D01*
X606954Y1469806D01*
X606918Y1469678D01*
X606885Y1469550D01*
X606856Y1469421D01*
X606831Y1469290D01*
X606810Y1469160D01*
X606792Y1469028D01*
X606779Y1468896D01*
X606769Y1468764D01*
X606763Y1468632D01*
X606761Y1468499D01*
X599537Y1469402D02*
X599537Y1463983D01*
X599537Y1469402D02*
X599539Y1469521D01*
X599545Y1469641D01*
X599555Y1469760D01*
X599569Y1469878D01*
X599586Y1469997D01*
X599608Y1470114D01*
X599633Y1470231D01*
X599663Y1470346D01*
X599696Y1470461D01*
X599733Y1470575D01*
X599773Y1470687D01*
X599818Y1470798D01*
X599866Y1470907D01*
X599917Y1471015D01*
X599972Y1471121D01*
X600031Y1471225D01*
X600093Y1471327D01*
X600158Y1471427D01*
X600227Y1471525D01*
X600299Y1471621D01*
X600374Y1471714D01*
X600451Y1471804D01*
X600532Y1471892D01*
X600616Y1471977D01*
X600703Y1472059D01*
X600792Y1472139D01*
X600884Y1472215D01*
X600978Y1472289D01*
X601075Y1472359D01*
X601173Y1472426D01*
X601274Y1472490D01*
X601378Y1472550D01*
X601483Y1472607D01*
X601590Y1472660D01*
X601698Y1472710D01*
X601808Y1472756D01*
X601920Y1472798D01*
X602033Y1472837D01*
X602147Y1472872D01*
X602262Y1472903D01*
X602379Y1472931D01*
X602496Y1472954D01*
X602613Y1472974D01*
X602732Y1472990D01*
X602851Y1473002D01*
X602970Y1473010D01*
X603089Y1473014D01*
X603209Y1473014D01*
X603328Y1473010D01*
X603447Y1473002D01*
X603566Y1472990D01*
X603685Y1472974D01*
X603802Y1472954D01*
X603919Y1472931D01*
X604036Y1472903D01*
X604151Y1472872D01*
X604265Y1472837D01*
X604378Y1472798D01*
X604490Y1472756D01*
X604600Y1472710D01*
X604708Y1472660D01*
X604815Y1472607D01*
X604920Y1472550D01*
X605024Y1472490D01*
X605125Y1472426D01*
X605223Y1472359D01*
X605320Y1472289D01*
X605414Y1472215D01*
X605506Y1472139D01*
X605595Y1472059D01*
X605682Y1471977D01*
X605766Y1471892D01*
X605847Y1471804D01*
X605924Y1471714D01*
X605999Y1471621D01*
X606071Y1471525D01*
X606140Y1471427D01*
X606205Y1471327D01*
X606267Y1471225D01*
X606326Y1471121D01*
X606381Y1471015D01*
X606432Y1470907D01*
X606480Y1470798D01*
X606525Y1470687D01*
X606565Y1470575D01*
X606602Y1470461D01*
X606635Y1470346D01*
X606665Y1470231D01*
X606690Y1470114D01*
X606712Y1469997D01*
X606729Y1469878D01*
X606743Y1469760D01*
X606753Y1469641D01*
X606759Y1469521D01*
X606761Y1469402D01*
X606762Y1469402D02*
X606762Y1465790D01*
D12*
X838200Y2583180D02*
X838200Y2598420D01*
X812800Y2598420D02*
X812800Y2583180D01*
X723900Y2583180D02*
X723900Y2598420D01*
X698500Y2598420D02*
X698500Y2583180D01*
D13*
X719750Y2527300D02*
X739250Y2527300D01*
X784750Y2527300D02*
X804250Y2527300D01*
D14*
X774700Y2473884D03*
X749300Y2473884D03*
D15*
X800100Y2355164D03*
X800100Y2431364D03*
D13*
X739250Y2306320D02*
X719750Y2306320D01*
X784750Y2306320D02*
X804250Y2306320D01*
D14*
X774700Y2252904D03*
X749300Y2252904D03*
D15*
X800100Y2134184D03*
X800100Y2210384D03*
D13*
X739250Y2085340D02*
X719750Y2085340D01*
X784750Y2085340D02*
X804250Y2085340D01*
D14*
X774700Y2031924D03*
X749300Y2031924D03*
D15*
X800100Y1913204D03*
X800100Y1989404D03*
D13*
X739250Y1864360D02*
X719750Y1864360D01*
X784750Y1864360D02*
X804250Y1864360D01*
D14*
X774700Y1810944D03*
X749300Y1810944D03*
D15*
X800100Y1692224D03*
X800100Y1768424D03*
D13*
X739250Y1643380D02*
X719750Y1643380D01*
X784750Y1643380D02*
X804250Y1643380D01*
D14*
X774700Y1589964D03*
X749300Y1589964D03*
D15*
X800100Y1471244D03*
X800100Y1547444D03*
D13*
X739250Y1422400D02*
X719750Y1422400D01*
X784750Y1422400D02*
X804250Y1422400D01*
D14*
X774700Y1368984D03*
X749300Y1368984D03*
D15*
X800100Y1250264D03*
X800100Y1326464D03*
D13*
X739250Y1201420D02*
X719750Y1201420D01*
X784750Y1201420D02*
X804250Y1201420D01*
D14*
X774700Y1148004D03*
X749300Y1148004D03*
D15*
X800100Y1029284D03*
X800100Y1105484D03*
D13*
X739250Y980440D02*
X719750Y980440D01*
X784750Y980440D02*
X804250Y980440D01*
D14*
X774700Y927024D03*
X749300Y927024D03*
D15*
X800100Y808304D03*
X800100Y884504D03*
D13*
X739250Y759460D02*
X719750Y759460D01*
X784750Y759460D02*
X804250Y759460D01*
D14*
X774700Y706044D03*
X749300Y706044D03*
D15*
X800100Y587324D03*
X800100Y663524D03*
D13*
X739250Y538480D02*
X719750Y538480D01*
X784750Y538480D02*
X804250Y538480D01*
D14*
X774700Y485064D03*
X749300Y485064D03*
D15*
X737870Y588594D03*
X737870Y664794D03*
D13*
X739250Y317500D02*
X719750Y317500D01*
X784750Y317500D02*
X804250Y317500D01*
D14*
X774700Y378577D03*
X749300Y378577D03*
D15*
X812800Y365259D03*
X812800Y441459D03*
M02*
