M48
;GenerationSoftware,Autodesk,EAGLE,9.6.2*%
;CreationDate,2022-02-22T17:14:18Z*%
FMAT,2
ICI,OFF
METRIC,TZ,000.000
T5C0.800
T4C0.813
T3C1.000
T2C1.016
T1C3.000
%
G90
M71
T1
X388000Y16000
X379000Y39000
X313000Y15000
T2
X390750Y21300
X355930Y37300
X395830Y21300
X370270Y18000
X367730Y18000
X400910Y21300
X398370Y21300
X365190Y18000
X393290Y21300
X372810Y18000
X388210Y21300
X385670Y21300
X383130Y21300
X400910Y39300
X398370Y39300
X395830Y39300
X393290Y39300
X390750Y39300
X388210Y39300
X385670Y39300
X383130Y39300
X358470Y37300
X353390Y37300
X341890Y39010
X344430Y39010
X312730Y39000
X315270Y39000
X320730Y39000
X323270Y39000
X361120Y18290
X358580Y18290
X356040Y18290
X353500Y18290
X350960Y18290
X348420Y18290
X345880Y18290
X343340Y18290
X395010Y16670
X397550Y16670
T3
X312120Y30740
X315120Y25940
X318220Y30740
T4
X348390Y22690
X350930Y22690
X353470Y22690
X356010Y22690
X358550Y22690
X379551Y34811
X363630Y22690
X366170Y22690
X368710Y22690
X371250Y22690
X373790Y22690
X336000Y14730
X336000Y17270
X331270Y33000
X328730Y33000
X334430Y20700
X334430Y28320
X373810Y40120
X373810Y32500
X338340Y37230
X330720Y37230
X379551Y27191
X363500Y32660
X363500Y40280
X366430Y32710
X366430Y40330
X330740Y39390
X338360Y39390
X373790Y30310
X371250Y30310
X368710Y30310
X366170Y30310
X363630Y30310
X361090Y30310
X358550Y30310
X356010Y30310
X353470Y30310
X350930Y30310
X348390Y30310
X345850Y30310
X361090Y22690
X326030Y16601
X328570Y16601
X343310Y30310
X340770Y30310
X379230Y13810
X379230Y21430
X377000Y13890
X377000Y21510
X340770Y22690
X343310Y22690
X345850Y22690
X331110Y16601
T5
X352140Y16250
X375380Y31740
M30